<svg width="25" height="27" viewBox="0 0 25 27" fill="none" xmlns="http://www.w3.org/2000/svg">
<g clip-path="url(#clip0)">
<path d="M14.1879 26.9473H10.1765C9.50648 26.9473 8.96144 26.3598 8.96144 25.6376V15.885H6.62113C5.95111 15.885 5.40607 15.2973 5.40607 14.5753V10.3963C5.40607 9.67408 5.95111 9.08659 6.62113 9.08659H8.96144V6.9939C8.96144 4.91892 9.56592 3.15356 10.7093 1.88896C11.8579 0.618599 13.463 -0.0527344 15.3511 -0.0527344L18.4104 -0.0473786C19.0793 -0.0461426 19.6234 0.541351 19.6234 1.26233V5.14243C19.6234 5.86464 19.0785 6.45213 18.4087 6.45213L16.3489 6.45296C15.7207 6.45296 15.5608 6.58871 15.5266 6.63032C15.4702 6.69933 15.4031 6.8944 15.4031 7.43308V9.08638H18.2539C18.4685 9.08638 18.6764 9.14344 18.8551 9.25097C19.2406 9.48312 19.4802 9.9221 19.4802 10.3965L19.4787 14.5755C19.4787 15.2973 18.9337 15.8848 18.2636 15.8848H15.4031V25.6376C15.4031 26.3598 14.8579 26.9473 14.1879 26.9473ZM10.4299 25.3644H13.9345V15.1764C13.9345 14.6941 14.2985 14.3019 14.7457 14.3019H18.0102L18.0116 10.6694H14.7455C14.2983 10.6694 13.9345 10.2772 13.9345 9.795V7.43308C13.9345 6.81468 13.9927 6.11142 14.4258 5.58284C14.949 4.94385 15.7737 4.8701 16.3485 4.8701L18.1549 4.86928V1.53506L15.35 1.53012C12.3156 1.53012 10.4299 3.62384 10.4299 6.9939V9.795C10.4299 10.277 10.066 10.6694 9.61885 10.6694H6.87454V14.3019H9.61885C10.066 14.3019 10.4299 14.6941 10.4299 15.1764V25.3644ZM18.4075 1.53548H18.4077H18.4075Z" fill="white"/>
</g>
<defs>
<clipPath id="clip0">
<rect width="25" height="27" fill="white"/>
</clipPath>
</defs>
</svg>
