<svg width="27" height="27" viewBox="0 0 27 27" fill="none" xmlns="http://www.w3.org/2000/svg">
<g clip-path="url(#clip0)">
<path d="M6.97989 7.99615H2.42825C1.91801 7.99615 1.50293 8.41123 1.50293 8.92148V26.0752C1.50293 26.5852 1.91801 27.0003 2.42825 27.0003H6.97989C7.48993 27.0003 7.90501 26.5852 7.90501 26.0752V8.92148C7.90501 8.41123 7.48993 7.99615 6.97989 7.99615ZM6.32071 25.416H3.08723V9.58045H6.32071V25.416Z" fill="white"/>
<path d="M4.70407 0C2.92429 0 1.47656 1.44772 1.47656 3.2273C1.47656 5.00708 2.92429 6.4548 4.70407 6.4548C6.48344 6.4548 7.93137 5.00708 7.93137 3.2273C7.93137 1.44772 6.48365 0 4.70407 0ZM4.70407 4.8705C3.7979 4.8705 3.06086 4.13346 3.06086 3.2273C3.06086 2.32134 3.7979 1.58429 4.70407 1.58429C5.61003 1.58429 6.34708 2.32134 6.34708 3.2273C6.34708 4.13325 5.61003 4.8705 4.70407 4.8705Z" fill="white"/>
<path d="M22.6254 10.0071C21.5374 9.0989 20.1541 8.61317 18.732 8.63953C17.8487 8.65581 16.9855 8.8688 16.2034 9.25442V8.87993C16.2034 8.39193 15.8077 7.99622 15.3197 7.99622H10.6852C10.1972 7.99622 9.80151 8.39193 9.80151 8.87993V26.1164C9.80151 26.6046 10.1972 27.0001 10.6852 27.0001H15.4111C15.8487 27.0001 16.2034 26.6454 16.2034 26.2081V15.9313C16.2034 15.0515 16.8918 14.307 17.771 14.2809C18.6848 14.2539 19.4367 14.9891 19.4367 15.8969V26.2246C19.4367 26.6528 19.784 27.0001 20.2122 27.0001H24.7542C25.1824 27.0001 25.5297 26.6528 25.5297 26.2246V16.211C25.5297 13.8091 24.4711 11.5477 22.6254 10.0071ZM23.9455 25.4158H21.0212V15.8969C21.0212 14.1319 19.5852 12.696 17.82 12.696C16.0551 12.696 14.6191 14.1319 14.6191 15.8969V25.4158H11.3858V9.5803H14.6191V10.7316H14.6201C14.6199 10.9182 14.6848 11.1057 14.8183 11.2567C15.1081 11.5842 15.6089 11.6147 15.9364 11.3247C16.7169 10.6338 17.7201 10.2428 18.7612 10.2234C19.8033 10.2036 20.8148 10.5592 21.6103 11.2233C23.0945 12.4622 23.9455 14.28 23.9455 16.211V25.4158Z" fill="white"/>
</g>
<defs>
<clipPath id="clip0">
<rect width="27" height="27" fill="white"/>
</clipPath>
</defs>
</svg>
