<svg width="875" height="76" viewBox="0 0 875 76" fill="none" xmlns="http://www.w3.org/2000/svg">
<path d="M2.7 72.3L1.19485 73.617L1.28265 73.7174L1.38299 73.8052L2.7 72.3ZM2.7 3.7L1.38299 2.19485L1.33288 2.2387L1.28579 2.28578L2.7 3.7ZM52.6 8.9L51.3428 10.4555L51.3532 10.4638L52.6 8.9ZM52.7 43L53.9173 44.5869L53.9241 44.5816L53.9309 44.5764L52.7 43ZM20.6 48.6V46.6H18.6V48.6H20.6ZM19.8 72.3L18.483 70.7948L18.4329 70.8387L18.3858 70.8858L19.8 72.3ZM38.9 32.6L40.2213 34.1014L40.2379 34.0868L40.2541 34.0719L38.9 32.6ZM39 19.4L37.5281 20.7541L37.5563 20.7848L37.5858 20.8142L39 19.4ZM20.3 16.9V14.9H18.3V16.9H20.3ZM20.3 34.8H18.3V36.8H20.3V34.8ZM4.5 71C4.34997 71 4.21074 70.9644 4.01701 70.7948L1.38299 73.8052C2.25593 74.569 3.3167 75 4.5 75V71ZM4.20515 70.983C4.03564 70.7893 4 70.65 4 70.5H0C0 71.6833 0.431027 72.7441 1.19485 73.617L4.20515 70.983ZM4 70.5V5.5H0V70.5H4ZM4 5.5C4 5.2325 4.06596 5.16247 4.11421 5.11422L1.28579 2.28578C0.400712 3.17085 0 4.30083 0 5.5H4ZM4.01701 5.20515C4.21074 5.03563 4.34997 5 4.5 5V0.999996C3.31669 0.999996 2.25593 1.43102 1.38299 2.19485L4.01701 5.20515ZM4.5 5H32.5V0.999996H4.5V5ZM32.5 5C40.7412 5 46.9424 6.89893 51.3428 10.4555L53.8572 7.34451C48.5243 3.0344 41.3254 0.999996 32.5 0.999996V5ZM51.3532 10.4638C55.7165 13.9426 58 19.0439 58 26.1H62C62 18.0894 59.3502 11.7241 53.8468 7.3362L51.3532 10.4638ZM58 26.1C58 33.0943 55.7475 38.083 51.4691 41.4236L53.9309 44.5764C59.3858 40.317 62 34.039 62 26.1H58ZM51.4827 41.4131C47.0814 44.7895 40.8329 46.6 32.5 46.6V50.6C41.3671 50.6 48.5853 48.6772 53.9173 44.5869L51.4827 41.4131ZM32.5 46.6H20.6V50.6H32.5V46.6ZM18.6 48.6V70.5H22.6V48.6H18.6ZM18.6 70.5C18.6 70.6197 18.5794 70.6718 18.5724 70.6877C18.5661 70.7019 18.5488 70.7373 18.483 70.7948L21.117 73.8052C22.1013 72.9439 22.6 71.7871 22.6 70.5H18.6ZM18.3858 70.8858C18.3375 70.934 18.2675 71 18 71V75C19.1992 75 20.3291 74.5993 21.2142 73.7142L18.3858 70.8858ZM18 71H4.5V75H18V71ZM32 36.8C35.2608 36.8 38.0856 35.9808 40.2213 34.1014L37.5787 31.0986C36.3811 32.1525 34.6059 32.8 32 32.8V36.8ZM40.2541 34.0719C42.4454 32.0558 43.4 29.218 43.4 25.9H39.4C39.4 28.4486 38.6879 30.0775 37.5459 31.1281L40.2541 34.0719ZM43.4 25.9C43.4 22.7541 42.4651 20.0367 40.4142 17.9858L37.5858 20.8142C38.7349 21.9633 39.4 23.5793 39.4 25.9H43.4ZM40.4719 18.0459C38.4321 15.8287 35.4711 14.9 32 14.9V18.9C34.7956 18.9 36.5012 19.6379 37.5281 20.7541L40.4719 18.0459ZM32 14.9H20.3V18.9H32V14.9ZM18.3 16.9V34.8H22.3V16.9H18.3ZM20.3 36.8H32V32.8H20.3V36.8ZM85.3672 72.4L83.8487 73.7016L83.9488 73.8184L84.0656 73.9185L85.3672 72.4ZM84.8672 70L82.9891 69.3125L82.979 69.3399L82.9698 69.3675L84.8672 70ZM108.367 5.8L110.245 6.48747L110.282 6.38792L110.307 6.28507L108.367 5.8ZM109.667 3.8L110.917 5.36173V5.36173L109.667 3.8ZM129.667 3.8L130.917 2.23826V2.23826L129.667 3.8ZM130.967 5.8L129.027 6.28507L129.052 6.38658L129.088 6.48489L130.967 5.8ZM154.367 70L156.32 69.5661L156.291 69.4382L156.246 69.3151L154.367 70ZM154.567 70.9H156.567V70.6805L156.52 70.4661L154.567 70.9ZM153.867 72.4L155.281 73.8142V73.8142L153.867 72.4ZM136.867 70.9L138.736 70.188L138.735 70.1857L136.867 70.9ZM132.967 60.7L134.835 59.9857L134.344 58.7H132.967V60.7ZM106.267 60.7V58.7H104.878L104.393 60.0018L106.267 60.7ZM102.467 70.9L104.336 71.612L104.339 71.6051L104.341 71.5982L102.467 70.9ZM128.967 46.3V48.3H131.792L130.854 45.6355L128.967 46.3ZM119.667 19.9L121.554 19.2355L119.667 13.8806L117.781 19.2355L119.667 19.9ZM110.367 46.3L108.481 45.6355L107.542 48.3H110.367V46.3ZM86.8672 71C86.8575 71 86.8511 70.9995 86.835 70.993C86.815 70.9851 86.7588 70.9587 86.6688 70.8815L84.0656 73.9185C84.8362 74.579 85.7846 75 86.8672 75V71ZM86.8857 71.0984C86.8085 71.0084 86.7821 70.9521 86.7741 70.9322C86.7677 70.9161 86.7672 70.9097 86.7672 70.9H82.7672C82.7672 71.9826 83.1881 72.931 83.8487 73.7016L86.8857 71.0984ZM86.7672 70.9C86.7672 70.7517 86.7736 70.6534 86.78 70.5959C86.783 70.5682 86.7853 70.5576 86.7846 70.561C86.7841 70.5636 86.7789 70.5895 86.7646 70.6325L82.9698 69.3675C82.7989 69.8802 82.7672 70.4416 82.7672 70.9H86.7672ZM86.7453 70.6875L110.245 6.48747L106.489 5.11252L82.9891 69.3125L86.7453 70.6875ZM110.307 6.28507C110.397 5.92578 110.579 5.63189 110.917 5.36173L108.418 2.23826C107.422 3.03477 106.737 4.07422 106.427 5.31492L110.307 6.28507ZM110.917 5.36173C111.148 5.1769 111.539 5 112.267 5V0.999996C110.862 0.999996 109.52 1.35642 108.418 2.23826L110.917 5.36173ZM112.267 5H127.067V0.999996H112.267V5ZM127.067 5C127.796 5 128.187 5.1769 128.418 5.36173L130.917 2.23826C129.814 1.35642 128.472 0.999996 127.067 0.999996V5ZM128.418 5.36173C128.755 5.63189 128.937 5.92578 129.027 6.28507L132.907 5.31492C132.597 4.07422 131.912 3.03477 130.917 2.23826L128.418 5.36173ZM129.088 6.48489L152.488 70.6849L156.246 69.3151L132.846 5.1151L129.088 6.48489ZM152.415 70.4339L152.615 71.3339L156.52 70.4661L156.32 69.5661L152.415 70.4339ZM152.567 70.9C152.567 70.8862 152.569 70.8696 152.573 70.8532C152.576 70.8371 152.58 70.8286 152.58 70.8292C152.579 70.8311 152.553 70.8858 152.453 70.9858L155.281 73.8142C156.029 73.0668 156.567 72.0838 156.567 70.9H152.567ZM152.453 70.9858C152.442 70.9969 152.437 70.9997 152.439 70.9984C152.441 70.9969 152.445 70.9947 152.449 70.993C152.453 70.9915 152.451 70.9928 152.441 70.9948C152.429 70.9968 152.406 71 152.367 71V75C153.462 75 154.482 74.6138 155.281 73.8142L152.453 70.9858ZM152.367 71H140.067V75H152.367V71ZM140.067 71C139.558 71 139.298 70.8905 139.165 70.8029C139.041 70.7221 138.88 70.5654 138.736 70.188L134.998 71.612C135.388 72.6346 136.026 73.5279 136.97 74.1471C137.903 74.7595 138.976 75 140.067 75V71ZM138.735 70.1857L134.835 59.9857L131.099 61.4143L134.999 71.6143L138.735 70.1857ZM132.967 58.7H106.267V62.7H132.967V58.7ZM104.393 60.0018L100.593 70.2018L104.341 71.5982L108.141 61.3982L104.393 60.0018ZM100.598 70.188C100.461 70.5482 100.303 70.7022 100.168 70.7877C100.018 70.8837 99.7249 71 99.1672 71V75C100.276 75 101.367 74.7663 102.316 74.1623C103.282 73.5478 103.94 72.6518 104.336 71.612L100.598 70.188ZM99.1672 71H86.8672V75H99.1672V71ZM130.854 45.6355L121.554 19.2355L117.781 20.5645L127.081 46.9645L130.854 45.6355ZM117.781 19.2355L108.481 45.6355L112.254 46.9645L121.554 20.5645L117.781 19.2355ZM110.367 48.3H128.967V44.3H110.367V48.3ZM193.738 71.3L192.937 73.1323L192.954 73.1398L192.971 73.147L193.738 71.3ZM184.138 64.1L182.521 65.2763L184.138 64.1ZM180.438 54.6H178.438V54.6978L178.448 54.7951L180.438 54.6ZM181.038 53.1L179.876 51.4725L179.815 51.5158L179.758 51.5636L181.038 53.1ZM198.538 54.4L200.347 53.5468L200.319 53.4867L200.287 53.4287L198.538 54.4ZM218.038 57.7L219.123 59.3806L219.129 59.3764L219.136 59.3721L218.038 57.7ZM218.338 46.1L219.474 44.4536L218.338 46.1ZM201.038 43.4L199.533 44.717L199.621 44.8174L199.721 44.9052L201.038 43.4ZM201.038 31.6L199.624 30.1858V30.1858L201.038 31.6ZM216.738 18.4L215.489 19.9617L215.504 19.9736L215.519 19.9852L216.738 18.4ZM202.538 17.8L201.618 16.0245L201.604 16.0317L201.59 16.0391L202.538 17.8ZM199.238 21.8L201.027 22.6944L201.117 22.5144L201.17 22.3199L199.238 21.8ZM198.138 23.2L199.248 24.8641L198.138 23.2ZM181.638 23L180.12 24.3016L180.22 24.4184L180.337 24.5185L181.638 23ZM181.138 21.4L183.126 21.6209L183.128 21.6062L183.129 21.5914L181.138 21.4ZM184.638 11.9L183.003 10.7481L182.998 10.7556L184.638 11.9ZM194.038 4.8L194.826 6.63829L194.833 6.63532L194.84 6.63231L194.038 4.8ZM224.638 4.7L223.85 6.53829L224.638 4.7ZM234.338 12L232.73 13.1888L232.736 13.1973L232.743 13.2057L234.338 12ZM229.838 36.2L228.865 34.4527L225.494 36.3304L228.972 38.0025L229.838 36.2ZM237.438 43.2L235.674 44.1412L235.678 44.1495L235.682 44.1577L237.438 43.2ZM236.138 63.9L234.542 62.6948L234.538 62.7L236.138 63.9ZM225.738 71.4L226.462 73.2645L226.469 73.2617L226.476 73.2588L225.738 71.4ZM209.938 72C203.642 72 198.522 71.1216 194.505 69.453L192.971 73.147C197.621 75.0784 203.301 76 209.938 76V72ZM194.54 69.4677C190.508 67.7037 187.629 65.4992 185.756 62.9237L182.521 65.2763C184.914 68.5675 188.435 71.1629 192.937 73.1323L194.54 69.4677ZM185.756 62.9237C183.818 60.2599 182.725 57.4284 182.429 54.4049L178.448 54.7951C178.818 58.5716 180.191 62.0734 182.521 65.2763L185.756 62.9237ZM182.438 54.6V54.4H178.438V54.6H182.438ZM182.438 54.4C182.438 54.3885 182.439 54.4377 182.404 54.5131C182.369 54.5899 182.326 54.6305 182.319 54.6364L179.758 51.5636C178.889 52.2874 178.438 53.2898 178.438 54.4H182.438ZM182.201 54.7275C182.312 54.6481 182.435 54.6 182.638 54.6V50.6C181.642 50.6 180.698 50.8853 179.876 51.4725L182.201 54.7275ZM182.638 54.6H195.438V50.6H182.638V54.6ZM195.438 54.6C195.847 54.6 196.096 54.685 196.259 54.7796C196.42 54.8729 196.605 55.0388 196.79 55.3713L200.287 53.4287C199.805 52.5612 199.14 51.8271 198.268 51.3204C197.397 50.8149 196.43 50.6 195.438 50.6V54.6ZM196.729 55.2532C198.868 59.787 203.497 61.7 209.538 61.7V57.7C204.247 57.7 201.542 56.0797 200.347 53.5468L196.729 55.2532ZM209.538 61.7C213.355 61.7 216.616 60.998 219.123 59.3806L216.954 56.0194C215.328 57.0686 212.922 57.7 209.538 57.7V61.7ZM219.136 59.3721C221.809 57.6177 223.238 55.068 223.238 51.9H219.238C219.238 53.6653 218.534 54.9823 216.941 56.0279L219.136 59.3721ZM223.238 51.9C223.238 48.7701 221.997 46.1936 219.474 44.4536L217.203 47.7464C218.546 48.6731 219.238 49.9632 219.238 51.9H223.238ZM219.474 44.4536C217.082 42.8043 213.928 42.1 210.238 42.1V46.1C213.482 46.1 215.728 46.729 217.203 47.7464L219.474 44.4536ZM210.238 42.1H202.838V46.1H210.238V42.1ZM202.838 42.1C202.688 42.1 202.549 42.0644 202.355 41.8948L199.721 44.9052C200.594 45.669 201.655 46.1 202.838 46.1V42.1ZM202.543 42.083C202.408 41.9279 202.338 41.7673 202.338 41.5H198.338C198.338 42.6993 198.736 43.8054 199.533 44.717L202.543 42.083ZM202.338 41.5V33.4H198.338V41.5H202.338ZM202.338 33.4C202.338 33.1325 202.404 33.0625 202.452 33.0142L199.624 30.1858C198.739 31.0709 198.338 32.2008 198.338 33.4H202.338ZM202.452 33.0142C202.664 32.8023 202.773 32.8 202.838 32.8V28.8C201.57 28.8 200.479 29.3311 199.624 30.1858L202.452 33.0142ZM202.838 32.8H210.038V28.8H202.838V32.8ZM210.038 32.8C213.163 32.8 215.889 32.1481 218.007 30.6231L215.67 27.3769C214.454 28.2519 212.647 28.8 210.038 28.8V32.8ZM218.007 30.6231C220.289 28.9803 221.338 26.5194 221.338 23.6H217.338C217.338 25.4806 216.721 26.6197 215.67 27.3769L218.007 30.6231ZM221.338 23.6C221.338 20.8277 220.169 18.5156 217.958 16.8148L215.519 19.9852C216.774 20.9511 217.338 22.1056 217.338 23.6H221.338ZM217.988 16.8383C215.84 15.1204 212.966 14.4 209.638 14.4V18.4C212.444 18.4 214.303 19.013 215.489 19.9617L217.988 16.8383ZM209.638 14.4C206.518 14.4 203.801 14.8926 201.618 16.0245L203.459 19.5755C204.876 18.8407 206.892 18.4 209.638 18.4V14.4ZM201.59 16.0391C199.424 17.2052 197.931 18.961 197.307 21.2801L201.17 22.3199C201.478 21.1723 202.186 20.2614 203.486 19.5609L201.59 16.0391ZM197.449 20.9056C197.329 21.1473 197.223 21.3101 197.141 21.4144C197.059 21.5187 197.017 21.5438 197.029 21.5359L199.248 24.8641C200.054 24.3262 200.616 23.516 201.027 22.6944L197.449 20.9056ZM197.029 21.5359C197.064 21.5123 197.054 21.53 196.955 21.5532C196.855 21.5768 196.689 21.6 196.438 21.6V25.6C197.373 25.6 198.389 25.4369 199.248 24.8641L197.029 21.5359ZM196.438 21.6H183.238V25.6H196.438V21.6ZM183.238 21.6C183.128 21.6 183.054 21.5791 182.94 21.4815L180.337 24.5185C181.156 25.2209 182.148 25.6 183.238 25.6V21.6ZM183.157 21.6984C183.135 21.6728 183.125 21.6569 183.122 21.6515C183.119 21.6464 183.12 21.6475 183.122 21.6535C183.124 21.6594 183.124 21.6631 183.124 21.6617C183.124 21.6599 183.123 21.6471 183.126 21.6209L179.151 21.1791C179.021 22.3409 179.367 23.423 180.12 24.3016L183.157 21.6984ZM183.129 21.5914C183.429 18.4686 184.475 15.6299 186.279 13.0444L182.998 10.7556C180.802 13.9034 179.514 17.3981 179.147 21.2086L183.129 21.5914ZM186.273 13.0519C188.075 10.4939 190.875 8.33178 194.826 6.63829L193.25 2.96171C188.802 4.86822 185.334 7.4394 183.003 10.7481L186.273 13.0519ZM194.84 6.63231C198.778 4.90939 203.817 4 210.038 4V-3.8147e-06C203.459 -3.8147e-06 197.832 0.957272 193.237 2.96768L194.84 6.63231ZM210.038 4C215.357 4 219.946 4.86497 223.85 6.53829L225.426 2.86171C220.931 0.935019 215.787 -3.8147e-06 210.038 -3.8147e-06V4ZM223.85 6.53829C227.789 8.22624 230.713 10.4595 232.73 13.1888L235.947 10.8112C233.431 7.40721 229.888 4.77375 225.426 2.86171L223.85 6.53829ZM232.743 13.2057C234.759 15.875 235.738 18.7554 235.738 21.9H239.738C239.738 17.8446 238.451 14.125 235.934 10.7943L232.743 13.2057ZM235.738 21.9C235.738 27.8585 233.428 31.9116 228.865 34.4527L230.811 37.9473C236.782 34.6218 239.738 29.1415 239.738 21.9H235.738ZM228.972 38.0025C232.108 39.5101 234.3 41.5649 235.674 44.1412L239.203 42.2588C237.377 38.8351 234.502 36.2232 230.705 34.3975L228.972 38.0025ZM235.682 44.1577C237.119 46.7919 237.838 49.6285 237.838 52.7H241.838C241.838 48.9715 240.957 45.4747 239.194 42.2423L235.682 44.1577ZM237.838 52.7C237.838 56.4772 236.74 59.7849 234.542 62.6948L237.734 65.1052C240.47 61.4818 241.838 57.3228 241.838 52.7H237.838ZM234.538 62.7C232.403 65.5465 229.266 67.8473 225 69.5412L226.476 73.2588C231.277 71.3527 235.073 68.6535 237.738 65.1L234.538 62.7ZM225.015 69.5355C220.831 71.159 215.821 72 209.938 72V76C216.189 76 221.712 75.1077 226.462 73.2645L225.015 69.5355ZM272.915 72.3L271.41 73.617L271.497 73.7174L271.598 73.8052L272.915 72.3ZM272.915 3.7L271.598 2.19485L271.548 2.2387L271.501 2.28578L272.915 3.7ZM322.815 8.9L321.558 10.4555L321.568 10.4638L322.815 8.9ZM322.915 43L324.132 44.5869L324.139 44.5816L324.146 44.5764L322.915 43ZM290.815 48.6V46.6H288.815V48.6H290.815ZM290.015 72.3L288.698 70.7948L288.648 70.8387L288.601 70.8858L290.015 72.3ZM309.115 32.6L310.436 34.1014L310.453 34.0868L310.469 34.0719L309.115 32.6ZM309.215 19.4L307.743 20.7541L307.771 20.7848L307.801 20.8142L309.215 19.4ZM290.515 16.9V14.9H288.515V16.9H290.515ZM290.515 34.8H288.515V36.8H290.515V34.8ZM274.715 71C274.565 71 274.426 70.9644 274.232 70.7948L271.598 73.8052C272.471 74.569 273.532 75 274.715 75V71ZM274.42 70.983C274.25 70.7893 274.215 70.65 274.215 70.5H270.215C270.215 71.6833 270.646 72.7441 271.41 73.617L274.42 70.983ZM274.215 70.5V5.5H270.215V70.5H274.215ZM274.215 5.5C274.215 5.2325 274.281 5.16247 274.329 5.11422L271.501 2.28578C270.616 3.17085 270.215 4.30083 270.215 5.5H274.215ZM274.232 5.20515C274.426 5.03563 274.565 5 274.715 5V0.999996C273.532 0.999996 272.471 1.43102 271.598 2.19485L274.232 5.20515ZM274.715 5H302.715V0.999996H274.715V5ZM302.715 5C310.956 5 317.157 6.89893 321.558 10.4555L324.072 7.34451C318.739 3.0344 311.54 0.999996 302.715 0.999996V5ZM321.568 10.4638C325.931 13.9426 328.215 19.0439 328.215 26.1H332.215C332.215 18.0894 329.565 11.7241 324.062 7.3362L321.568 10.4638ZM328.215 26.1C328.215 33.0943 325.962 38.083 321.684 41.4236L324.146 44.5764C329.601 40.317 332.215 34.039 332.215 26.1H328.215ZM321.698 41.4131C317.296 44.7895 311.048 46.6 302.715 46.6V50.6C311.582 50.6 318.8 48.6772 324.132 44.5869L321.698 41.4131ZM302.715 46.6H290.815V50.6H302.715V46.6ZM288.815 48.6V70.5H292.815V48.6H288.815ZM288.815 70.5C288.815 70.6197 288.794 70.6718 288.787 70.6877C288.781 70.7019 288.764 70.7373 288.698 70.7948L291.332 73.8052C292.316 72.9439 292.815 71.7871 292.815 70.5H288.815ZM288.601 70.8858C288.552 70.934 288.482 71 288.215 71V75C289.414 75 290.544 74.5993 291.429 73.7142L288.601 70.8858ZM288.215 71H274.715V75H288.215V71ZM302.215 36.8C305.476 36.8 308.3 35.9808 310.436 34.1014L307.794 31.0986C306.596 32.1525 304.821 32.8 302.215 32.8V36.8ZM310.469 34.0719C312.66 32.0558 313.615 29.218 313.615 25.9H309.615C309.615 28.4486 308.903 30.0775 307.761 31.1281L310.469 34.0719ZM313.615 25.9C313.615 22.7541 312.68 20.0367 310.629 17.9858L307.801 20.8142C308.95 21.9633 309.615 23.5793 309.615 25.9H313.615ZM310.687 18.0459C308.647 15.8287 305.686 14.9 302.215 14.9V18.9C305.01 18.9 306.716 19.6379 307.743 20.7541L310.687 18.0459ZM302.215 14.9H290.515V18.9H302.215V14.9ZM288.515 16.9V34.8H292.515V16.9H288.515ZM290.515 36.8H302.215V32.8H290.515V36.8ZM355.582 72.4L354.064 73.7016L354.164 73.8184L354.28 73.9185L355.582 72.4ZM355.082 70L353.204 69.3125L353.194 69.3399L353.185 69.3675L355.082 70ZM378.582 5.8L380.46 6.48747L380.497 6.38792L380.522 6.28507L378.582 5.8ZM379.882 3.8L381.131 5.36173V5.36173L379.882 3.8ZM399.882 3.8L401.131 2.23826V2.23826L399.882 3.8ZM401.182 5.8L399.242 6.28507L399.267 6.38658L399.303 6.48489L401.182 5.8ZM424.582 70L426.534 69.5661L426.506 69.4382L426.461 69.3151L424.582 70ZM424.782 70.9H426.782V70.6805L426.734 70.4661L424.782 70.9ZM424.082 72.4L425.496 73.8142V73.8142L424.082 72.4ZM407.082 70.9L408.951 70.188L408.95 70.1857L407.082 70.9ZM403.182 60.7L405.05 59.9857L404.559 58.7H403.182V60.7ZM376.482 60.7V58.7H375.093L374.608 60.0018L376.482 60.7ZM372.682 70.9L374.551 71.612L374.554 71.6051L374.556 71.5982L372.682 70.9ZM399.182 46.3V48.3H402.007L401.068 45.6355L399.182 46.3ZM389.882 19.9L391.768 19.2355L389.882 13.8806L387.996 19.2355L389.882 19.9ZM380.582 46.3L378.696 45.6355L377.757 48.3H380.582V46.3ZM357.082 71C357.072 71 357.066 70.9995 357.05 70.993C357.03 70.9851 356.974 70.9587 356.884 70.8815L354.28 73.9185C355.051 74.579 355.999 75 357.082 75V71ZM357.101 71.0984C357.023 71.0084 356.997 70.9521 356.989 70.9322C356.983 70.9161 356.982 70.9097 356.982 70.9H352.982C352.982 71.9826 353.403 72.931 354.064 73.7016L357.101 71.0984ZM356.982 70.9C356.982 70.7517 356.988 70.6534 356.995 70.5959C356.998 70.5682 357 70.5576 356.999 70.561C356.999 70.5636 356.994 70.5895 356.979 70.6325L353.185 69.3675C353.014 69.8802 352.982 70.4416 352.982 70.9H356.982ZM356.96 70.6875L380.46 6.48747L376.704 5.11252L353.204 69.3125L356.96 70.6875ZM380.522 6.28507C380.612 5.92578 380.794 5.63189 381.131 5.36173L378.633 2.23826C377.637 3.03477 376.952 4.07422 376.642 5.31492L380.522 6.28507ZM381.131 5.36173C381.362 5.1769 381.754 5 382.482 5V0.999996C381.077 0.999996 379.735 1.35642 378.633 2.23826L381.131 5.36173ZM382.482 5H397.282V0.999996H382.482V5ZM397.282 5C398.01 5 398.402 5.1769 398.633 5.36173L401.131 2.23826C400.029 1.35642 398.687 0.999996 397.282 0.999996V5ZM398.633 5.36173C398.97 5.63189 399.152 5.92578 399.242 6.28507L403.122 5.31492C402.812 4.07422 402.127 3.03477 401.131 2.23826L398.633 5.36173ZM399.303 6.48489L422.703 70.6849L426.461 69.3151L403.061 5.1151L399.303 6.48489ZM422.63 70.4339L422.83 71.3339L426.734 70.4661L426.534 69.5661L422.63 70.4339ZM422.782 70.9C422.782 70.8862 422.784 70.8696 422.787 70.8532C422.791 70.8371 422.795 70.8286 422.795 70.8292C422.794 70.8311 422.768 70.8858 422.668 70.9858L425.496 73.8142C426.244 73.0668 426.782 72.0838 426.782 70.9H422.782ZM422.668 70.9858C422.657 70.9969 422.652 70.9997 422.654 70.9984C422.656 70.9969 422.66 70.9947 422.664 70.993C422.668 70.9915 422.666 70.9928 422.656 70.9948C422.644 70.9968 422.621 71 422.582 71V75C423.677 75 424.697 74.6138 425.496 73.8142L422.668 70.9858ZM422.582 71H410.282V75H422.582V71ZM410.282 71C409.773 71 409.513 70.8905 409.379 70.8029C409.256 70.7221 409.095 70.5654 408.951 70.188L405.213 71.612C405.603 72.6346 406.241 73.5279 407.185 74.1471C408.118 74.7595 409.191 75 410.282 75V71ZM408.95 70.1857L405.05 59.9857L401.314 61.4143L405.214 71.6143L408.95 70.1857ZM403.182 58.7H376.482V62.7H403.182V58.7ZM374.608 60.0018L370.808 70.2018L374.556 71.5982L378.356 61.3982L374.608 60.0018ZM370.813 70.188C370.676 70.5482 370.518 70.7022 370.383 70.7877C370.232 70.8837 369.94 71 369.382 71V75C370.491 75 371.582 74.7663 372.531 74.1623C373.496 73.5478 374.155 72.6518 374.551 71.612L370.813 70.188ZM369.382 71H357.082V75H369.382V71ZM401.068 45.6355L391.768 19.2355L387.996 20.5645L397.296 46.9645L401.068 45.6355ZM387.996 19.2355L378.696 45.6355L382.468 46.9645L391.768 20.5645L387.996 19.2355ZM380.582 48.3H399.182V44.3H380.582V48.3ZM454.653 72.3L453.148 73.617L453.236 73.7174L453.336 73.8052L454.653 72.3ZM454.653 3.7L453.336 2.19485L453.286 2.2387L453.239 2.28578L454.653 3.7ZM506.253 3.7L507.667 2.28578L506.253 3.7ZM506.253 17.4L507.667 18.8142L507.714 18.7671L507.758 18.717L506.253 17.4ZM471.953 18.1V16.1H469.953V18.1H471.953ZM471.953 29.9H469.953V31.9H471.953V29.9ZM508.653 62.4L510.359 63.4443L510.364 63.4367L510.368 63.429L508.653 62.4ZM499.853 70.2L500.723 72.0011L500.735 71.9951L500.748 71.9889L499.853 70.2ZM490.653 57.4L489.184 56.0434L489.169 56.059L489.155 56.0749L490.653 57.4ZM490.753 45L489.309 46.3838L490.753 45ZM471.953 42.6V40.6H469.953V42.6H471.953ZM471.953 60H469.953V62H471.953V60ZM456.453 71C456.303 71 456.164 70.9644 455.97 70.7948L453.336 73.8052C454.209 74.569 455.27 75 456.453 75V71ZM456.158 70.983C455.989 70.7893 455.953 70.65 455.953 70.5H451.953C451.953 71.6833 452.384 72.7441 453.148 73.617L456.158 70.983ZM455.953 70.5V5.5H451.953V70.5H455.953ZM455.953 5.5C455.953 5.2325 456.019 5.16247 456.067 5.11422L453.239 2.28578C452.354 3.17085 451.953 4.30083 451.953 5.5H455.953ZM455.97 5.20515C456.164 5.03563 456.303 5 456.453 5V0.999996C455.27 0.999996 454.209 1.43102 453.336 2.19485L455.97 5.20515ZM456.453 5H504.453V0.999996H456.453V5ZM504.453 5C504.721 5 504.791 5.06595 504.839 5.11421L507.667 2.28578C506.782 1.40071 505.652 0.999996 504.453 0.999996V5ZM504.839 5.11421C504.887 5.16247 504.953 5.23249 504.953 5.5H508.953C508.953 4.30083 508.552 3.17086 507.667 2.28578L504.839 5.11421ZM504.953 5.5V15.5H508.953V5.5H504.953ZM504.953 15.5C504.953 15.7673 504.884 15.9279 504.748 16.083L507.758 18.717C508.556 17.8054 508.953 16.6993 508.953 15.5H504.953ZM504.839 15.9858C504.791 16.034 504.721 16.1 504.453 16.1V20.1C505.652 20.1 506.782 19.6993 507.667 18.8142L504.839 15.9858ZM504.453 16.1H471.953V20.1H504.453V16.1ZM469.953 18.1V29.9H473.953V18.1H469.953ZM471.953 31.9H485.853V27.9H471.953V31.9ZM485.853 31.9C493.547 31.9 499.344 33.7255 503.479 37.1419L506.027 34.0581C500.963 29.8745 494.159 27.9 485.853 27.9V31.9ZM503.479 37.1419C507.567 40.5186 509.653 45.1248 509.653 51.2H513.653C513.653 44.0752 511.139 38.2814 506.027 34.0581L503.479 37.1419ZM509.653 51.2C509.653 54.9947 508.74 58.3684 506.938 61.371L510.368 63.429C512.567 59.765 513.653 55.672 513.653 51.2H509.653ZM506.947 61.3557C505.167 64.2635 502.535 66.6231 498.959 68.4111L500.748 71.9889C504.905 69.9103 508.139 67.0699 510.359 63.4443L506.947 61.3557ZM498.984 68.3989C495.452 70.1039 491.098 71 485.853 71V75C491.541 75 496.521 74.0294 500.723 72.0011L498.984 68.3989ZM485.853 71H456.453V75H485.853V71ZM484.253 62C487.446 62 490.169 60.9661 492.151 58.7251L489.155 56.0749C488.071 57.3006 486.527 58 484.253 58V62ZM492.123 58.7566C494.081 56.6356 495.053 54.0442 495.053 51.1H491.053C491.053 53.0892 490.426 54.6977 489.184 56.0434L492.123 58.7566ZM495.053 51.1C495.053 48.1811 494.129 45.6319 492.197 43.6162L489.309 46.3838C490.444 47.5681 491.053 49.0856 491.053 51.1H495.053ZM492.197 43.6162C490.193 41.5248 487.446 40.6 484.253 40.6V44.6C486.66 44.6 488.247 45.2752 489.309 46.3838L492.197 43.6162ZM484.253 40.6H471.953V44.6H484.253V40.6ZM469.953 42.6V60H473.953V42.6H469.953ZM471.953 62H484.253V58H471.953V62ZM547.365 67.1L548.662 65.5775L547.365 67.1ZM538.765 46.8L536.766 46.8689L536.766 46.8746L538.765 46.8ZM538.765 29.5L536.766 29.4243L536.766 29.4311L538.765 29.5ZM547.465 9.2L548.774 10.712L548.775 10.7108L547.465 9.2ZM591.665 9.2L590.354 10.7108L590.365 10.7198L591.665 9.2ZM600.365 29.5L598.366 29.5606L598.366 29.5689L600.365 29.5ZM600.365 46.8L602.363 46.8746L602.364 46.8689L600.365 46.8ZM591.765 67.1L590.468 65.5775L591.765 67.1ZM578.265 56.3L576.851 54.8858L576.84 54.8967L576.829 54.9077L578.265 56.3ZM581.765 46.2L579.766 46.1311L579.766 46.1412L581.765 46.2ZM581.765 29.8L579.766 29.8588L579.766 29.8714L581.765 29.8ZM578.265 19.7L579.679 18.2858L578.265 19.7ZM560.865 19.7L559.451 18.2858L559.44 18.2967L559.429 18.3077L560.865 19.7ZM557.365 29.8L555.367 29.7118L555.366 29.7202L555.366 29.7286L557.365 29.8ZM557.365 46.2L555.366 46.2689L555.366 46.2785L555.367 46.2881L557.365 46.2ZM560.865 56.3L562.301 54.9077L560.865 56.3ZM569.565 72C560.484 72 553.596 69.7812 548.662 65.5775L546.068 68.6225C551.933 73.6188 559.846 76 569.565 76V72ZM548.662 65.5775C543.794 61.4306 541.082 55.2547 540.763 46.7254L536.766 46.8746C537.115 56.212 540.136 63.5694 546.068 68.6225L548.662 65.5775ZM540.764 46.7311C540.698 44.8332 540.665 41.9944 540.665 38.2H536.665C536.665 42.0056 536.698 44.9001 536.766 46.8689L540.764 46.7311ZM540.665 38.2C540.665 34.3385 540.698 31.4665 540.764 29.5689L536.766 29.4311C536.698 31.4001 536.665 34.3282 536.665 38.2H540.665ZM540.763 29.5757C541.081 21.1994 543.815 15.0056 548.774 10.712L546.156 7.68801C540.181 12.8611 537.116 20.2006 536.766 29.4243L540.763 29.5757ZM548.775 10.7108C553.859 6.30074 560.719 4 569.565 4V-3.8147e-06C560.011 -3.8147e-06 552.137 2.49926 546.154 7.68922L548.775 10.7108ZM569.565 4C578.411 4 585.271 6.30074 590.354 10.7108L592.975 7.68922C586.993 2.49926 579.119 -3.8147e-06 569.565 -3.8147e-06V4ZM590.365 10.7198C595.382 15.0114 598.112 21.1961 598.366 29.5606L602.364 29.4394C602.084 20.2039 599.015 12.8553 592.965 7.68019L590.365 10.7198ZM598.366 29.5689C598.499 33.4305 598.565 36.3024 598.565 38.2H602.565C602.565 36.2309 602.497 33.3028 602.364 29.4311L598.366 29.5689ZM598.565 38.2C598.565 40.0304 598.499 42.8685 598.366 46.7311L602.364 46.8689C602.497 42.9981 602.565 40.1029 602.565 38.2H598.565ZM598.366 46.7254C598.048 55.2547 595.336 61.4306 590.468 65.5775L593.062 68.6225C598.994 63.5694 602.015 56.212 602.363 46.8746L598.366 46.7254ZM590.468 65.5775C585.533 69.7812 578.646 72 569.565 72V76C579.284 76 587.196 73.6188 593.062 68.6225L590.468 65.5775ZM569.565 61.6C573.658 61.6 577.118 60.3559 579.701 57.6923L576.829 54.9077C575.145 56.6441 572.805 57.6 569.565 57.6V61.6ZM579.679 57.7142C582.375 55.0178 583.622 51.0708 583.764 46.2588L579.766 46.1412C579.641 50.3959 578.554 53.1822 576.851 54.8858L579.679 57.7142ZM583.764 46.2689C583.897 42.4023 583.965 39.6381 583.965 38H579.965C579.965 39.5619 579.899 42.2644 579.766 46.1311L583.764 46.2689ZM583.965 38C583.965 36.2286 583.897 33.4651 583.764 29.7286L579.766 29.8714C579.899 33.6015 579.965 36.3047 579.965 38H583.965ZM583.764 29.7412C583.622 24.9292 582.375 20.9822 579.679 18.2858L576.851 21.1142C578.554 22.8178 579.641 25.6041 579.766 29.8588L583.764 29.7412ZM579.679 18.2858C577.045 15.6514 573.605 14.4 569.565 14.4V18.4C572.725 18.4 575.085 19.3486 576.851 21.1142L579.679 18.2858ZM569.565 14.4C565.525 14.4 562.085 15.6514 559.451 18.2858L562.279 21.1142C564.045 19.3486 566.405 18.4 569.565 18.4V14.4ZM559.429 18.3077C556.823 20.9948 555.578 24.9191 555.367 29.7118L559.363 29.8881C559.551 25.6143 560.64 22.8052 562.301 21.0923L559.429 18.3077ZM555.366 29.7286C555.298 31.6318 555.265 34.3937 555.265 38H559.265C559.265 34.4063 559.298 31.7016 559.364 29.8714L555.366 29.7286ZM555.265 38C555.265 41.5409 555.298 44.3012 555.366 46.2689L559.364 46.1311C559.298 44.2322 559.265 41.5258 559.265 38H555.265ZM555.367 46.2881C555.578 51.0809 556.823 55.0052 559.429 57.6923L562.301 54.9077C560.64 53.1948 559.551 50.3857 559.363 46.1118L555.367 46.2881ZM559.429 57.6923C562.012 60.3559 565.472 61.6 569.565 61.6V57.6C566.325 57.6 563.984 56.6441 562.301 54.9077L559.429 57.6923ZM649.545 72.3L648.04 73.617L648.128 73.7174L648.228 73.8052L649.545 72.3ZM648.845 18.7H650.845V16.7H648.845V18.7ZM629.245 18L627.74 19.317L627.828 19.4174L627.928 19.5052L629.245 18ZM629.245 3.7L627.928 2.19485L627.878 2.2387L627.831 2.28578L629.245 3.7ZM686.645 3.7L688.06 2.28578L686.645 3.7ZM686.645 18L688.06 19.4142V19.4142L686.645 18ZM667.045 18.7V16.7H665.045V18.7H667.045ZM666.345 72.3L667.76 73.7142L667.807 73.6671L667.85 73.617L666.345 72.3ZM651.345 71C651.195 71 651.056 70.9644 650.862 70.7948L648.228 73.8052C649.101 74.569 650.162 75 651.345 75V71ZM651.05 70.983C650.881 70.7893 650.845 70.65 650.845 70.5H646.845C646.845 71.6833 647.276 72.7441 648.04 73.617L651.05 70.983ZM650.845 70.5V18.7H646.845V70.5H650.845ZM648.845 16.7H631.045V20.7H648.845V16.7ZM631.045 16.7C630.895 16.7 630.756 16.6644 630.562 16.4948L627.928 19.5052C628.801 20.269 629.862 20.7 631.045 20.7V16.7ZM630.75 16.683C630.581 16.4893 630.545 16.35 630.545 16.2H626.545C626.545 17.3833 626.976 18.4441 627.74 19.317L630.75 16.683ZM630.545 16.2V5.5H626.545V16.2H630.545ZM630.545 5.5C630.545 5.2325 630.611 5.16247 630.66 5.11421L627.831 2.28578C626.946 3.17086 626.545 4.30083 626.545 5.5H630.545ZM630.562 5.20515C630.756 5.03563 630.895 5 631.045 5V0.999996C629.862 0.999996 628.801 1.43102 627.928 2.19485L630.562 5.20515ZM631.045 5H684.845V0.999996H631.045V5ZM684.845 5C685.113 5 685.183 5.06595 685.231 5.11421L688.06 2.28578C687.174 1.40071 686.044 0.999996 684.845 0.999996V5ZM685.231 5.11421C685.279 5.16247 685.345 5.23249 685.345 5.5H689.345C689.345 4.30083 688.945 3.17086 688.06 2.28578L685.231 5.11421ZM685.345 5.5V16.2H689.345V5.5H685.345ZM685.345 16.2C685.345 16.4675 685.279 16.5375 685.231 16.5858L688.06 19.4142C688.945 18.5291 689.345 17.3992 689.345 16.2H685.345ZM685.231 16.5858C685.183 16.634 685.113 16.7 684.845 16.7V20.7C686.044 20.7 687.174 20.2993 688.06 19.4142L685.231 16.5858ZM684.845 16.7H667.045V20.7H684.845V16.7ZM665.045 18.7V70.5H669.045V18.7H665.045ZM665.045 70.5C665.045 70.65 665.01 70.7893 664.84 70.983L667.85 73.617C668.614 72.7441 669.045 71.6833 669.045 70.5H665.045ZM664.931 70.8858C664.883 70.934 664.813 71 664.545 71V75C665.745 75 666.874 74.5993 667.76 73.7142L664.931 70.8858ZM664.545 71H651.345V75H664.545V71ZM778.223 69.6L776.523 70.654L776.57 70.7292L776.623 70.8L778.223 69.6ZM777.823 72.4L776.408 70.9858L777.823 72.4ZM759.323 72.5L758.042 74.0364L758.1 74.0842L758.16 74.1275L759.323 72.5ZM757.923 71.1L756.208 72.129L756.304 72.2891L756.428 72.4287L757.923 71.1ZM742.623 45.6L744.338 44.571L743.755 43.6H742.623V45.6ZM735.723 45.6V43.6H733.723V45.6H735.723ZM734.923 72.3L733.606 70.7948L733.556 70.8387L733.508 70.8858L734.923 72.3ZM718.423 72.3L719.837 70.8858L718.423 72.3ZM718.423 3.7L717.106 2.19485L717.056 2.2387L717.008 2.28578L718.423 3.7ZM734.923 3.7L733.508 5.11421L733.556 5.1613L733.606 5.20515L734.923 3.7ZM735.723 29.6H733.723V31.5675L735.69 31.5997L735.723 29.6ZM741.823 29.7L741.79 31.6997L742.951 31.7188L743.543 30.7198L741.823 29.7ZM756.523 4.89999L758.243 5.91979L758.248 5.91095L758.254 5.90207L756.523 4.89999ZM776.223 3.6L774.808 5.01421L774.808 5.01421L776.223 3.6ZM776.423 6.3L778.129 7.3438L778.173 7.27089L778.211 7.19443L776.423 6.3ZM757.823 36.7L756.117 35.6562L755.474 36.707L756.123 37.754L757.823 36.7ZM776.623 70.8C776.552 70.7053 776.525 70.6274 776.518 70.6012C776.512 70.5793 776.523 70.6057 776.523 70.7H780.523C780.523 69.9695 780.368 69.1272 779.823 68.4L776.623 70.8ZM776.523 70.7C776.523 70.8423 776.496 70.8984 776.408 70.9858L779.237 73.8142C780.083 72.9682 780.523 71.8911 780.523 70.7H776.523ZM776.408 70.9858C776.407 70.9868 776.41 70.9839 776.416 70.9801C776.422 70.9764 776.424 70.9758 776.42 70.9773C776.413 70.9801 776.356 71 776.223 71V75C777.318 75 778.395 74.6557 779.237 73.8142L776.408 70.9858ZM776.223 71H761.423V75H776.223V71ZM761.423 71C761.069 71 760.822 70.9678 760.661 70.9294C760.501 70.8912 760.462 70.856 760.485 70.8725L758.16 74.1275C759.119 74.8125 760.312 75 761.423 75V71ZM760.603 70.9636C760.309 70.7184 759.916 70.3321 759.417 69.7713L756.428 72.4287C756.996 73.0679 757.536 73.6149 758.042 74.0364L760.603 70.9636ZM759.638 70.071L744.338 44.571L740.908 46.629L756.208 72.129L759.638 70.071ZM742.623 43.6H735.723V47.6H742.623V43.6ZM733.723 45.6V70.5H737.723V45.6H733.723ZM733.723 70.5C733.723 70.6197 733.702 70.6718 733.695 70.6877C733.689 70.7019 733.671 70.7373 733.606 70.7948L736.24 73.8052C737.224 72.9439 737.723 71.7871 737.723 70.5H733.723ZM733.508 70.8858C733.46 70.934 733.39 71 733.123 71V75C734.322 75 735.452 74.5993 736.337 73.7142L733.508 70.8858ZM733.123 71H720.223V75H733.123V71ZM720.223 71C719.955 71 719.885 70.934 719.837 70.8858L717.008 73.7142C717.893 74.5993 719.023 75 720.223 75V71ZM719.837 70.8858C719.789 70.8375 719.723 70.7675 719.723 70.5H715.723C715.723 71.6992 716.123 72.8291 717.008 73.7142L719.837 70.8858ZM719.723 70.5V5.5H715.723V70.5H719.723ZM719.723 5.5C719.723 5.2325 719.789 5.16247 719.837 5.11422L717.008 2.28578C716.123 3.17085 715.723 4.30083 715.723 5.5H719.723ZM719.74 5.20515C719.933 5.03563 720.073 5 720.223 5V0.999996C719.039 0.999996 717.979 1.43102 717.106 2.19485L719.74 5.20515ZM720.223 5H733.123V0.999996H720.223V5ZM733.123 5C733.39 5 733.46 5.06595 733.508 5.11421L736.337 2.28579C735.452 1.40071 734.322 0.999996 733.123 0.999996V5ZM733.606 5.20515C733.671 5.26272 733.689 5.29813 733.695 5.31227C733.702 5.32817 733.723 5.38034 733.723 5.5H737.723C737.723 4.21286 737.224 3.05612 736.24 2.19484L733.606 5.20515ZM733.723 5.5V29.6H737.723V5.5H733.723ZM735.69 31.5997L741.79 31.6997L741.855 27.7003L735.755 27.6003L735.69 31.5997ZM743.543 30.7198L758.243 5.91979L754.802 3.8802L740.102 28.6802L743.543 30.7198ZM758.254 5.90207C758.557 5.377 759.047 5 760.223 5V0.999996C757.932 0.999996 755.954 1.88966 754.792 3.89792L758.254 5.90207ZM760.223 5H774.723V0.999996H760.223V5ZM774.723 5C774.761 5 774.785 5.0032 774.796 5.00524C774.807 5.00719 774.809 5.00852 774.805 5.00695C774.801 5.0053 774.797 5.00306 774.794 5.00159C774.793 5.00027 774.797 5.00307 774.808 5.01421L777.637 2.18579C776.837 1.3862 775.817 0.999996 774.723 0.999996V5ZM774.808 5.01421C774.82 5.02534 774.822 5.03014 774.821 5.02815C774.82 5.02595 774.817 5.02189 774.816 5.01778C774.814 5.01384 774.815 5.01573 774.817 5.02652C774.819 5.03772 774.823 5.06129 774.823 5.1H778.823C778.823 4.00528 778.436 2.98538 777.637 2.18579L774.808 5.01421ZM774.823 5.1C774.823 5.00485 774.834 4.94526 774.836 4.93276C774.839 4.91822 774.838 4.92838 774.825 4.96754C774.798 5.04949 774.741 5.19189 774.634 5.40556L778.211 7.19443C778.486 6.64542 778.823 5.87632 778.823 5.1H774.823ZM774.717 5.25619L756.117 35.6562L759.529 37.7438L778.129 7.3438L774.717 5.25619ZM756.123 37.754L776.523 70.654L779.922 68.546L759.522 35.646L756.123 37.754ZM803.629 72.4L802.11 73.7016L802.211 73.8184L802.327 73.9185L803.629 72.4ZM803.129 70L801.251 69.3125L801.241 69.3399L801.232 69.3675L803.129 70ZM826.629 5.8L828.507 6.48747L828.543 6.38792L828.569 6.28507L826.629 5.8ZM827.929 3.8L829.178 5.36173V5.36173L827.929 3.8ZM847.929 3.8L849.178 2.23826V2.23826L847.929 3.8ZM849.229 5.8L847.289 6.28507L847.314 6.38658L847.35 6.48489L849.229 5.8ZM872.629 70L874.581 69.5661L874.553 69.4382L874.508 69.3151L872.629 70ZM872.829 70.9H874.829V70.6805L874.781 70.4661L872.829 70.9ZM872.129 72.4L873.543 73.8142L873.543 73.8142L872.129 72.4ZM855.129 70.9L856.998 70.188L856.997 70.1857L855.129 70.9ZM851.229 60.7L853.097 59.9857L852.605 58.7H851.229V60.7ZM824.529 60.7V58.7H823.14L822.655 60.0018L824.529 60.7ZM820.729 70.9L822.598 71.612L822.601 71.6051L822.603 71.5982L820.729 70.9ZM847.229 46.3V48.3H850.054L849.115 45.6355L847.229 46.3ZM837.929 19.9L839.815 19.2355L837.929 13.8806L836.043 19.2355L837.929 19.9ZM828.629 46.3L826.743 45.6355L825.804 48.3H828.629V46.3ZM805.129 71C805.119 71 805.113 70.9995 805.097 70.993C805.077 70.9851 805.021 70.9587 804.93 70.8815L802.327 73.9185C803.098 74.579 804.046 75 805.129 75V71ZM805.147 71.0984C805.07 71.0084 805.044 70.9521 805.036 70.9322C805.029 70.9161 805.029 70.9097 805.029 70.9H801.029C801.029 71.9826 801.45 72.931 802.11 73.7016L805.147 71.0984ZM805.029 70.9C805.029 70.7517 805.035 70.6534 805.042 70.5959C805.045 70.5682 805.047 70.5576 805.046 70.561C805.046 70.5636 805.041 70.5895 805.026 70.6325L801.232 69.3675C801.061 69.8802 801.029 70.4416 801.029 70.9H805.029ZM805.007 70.6875L828.507 6.48747L824.751 5.11252L801.251 69.3125L805.007 70.6875ZM828.569 6.28507C828.659 5.92578 828.841 5.63189 829.178 5.36173L826.68 2.23826C825.684 3.03477 824.999 4.07422 824.689 5.31492L828.569 6.28507ZM829.178 5.36173C829.409 5.1769 829.8 5 830.529 5V0.999996C829.124 0.999996 827.782 1.35642 826.68 2.23826L829.178 5.36173ZM830.529 5H845.329V0.999996H830.529V5ZM845.329 5C846.057 5 846.448 5.1769 846.68 5.36173L849.178 2.23826C848.076 1.35642 846.734 0.999996 845.329 0.999996V5ZM846.68 5.36173C847.017 5.63189 847.199 5.92578 847.289 6.28507L851.169 5.31492C850.859 4.07422 850.174 3.03477 849.178 2.23826L846.68 5.36173ZM847.35 6.48489L870.75 70.6849L874.508 69.3151L851.108 5.1151L847.35 6.48489ZM870.677 70.4339L870.877 71.3339L874.781 70.4661L874.581 69.5661L870.677 70.4339ZM870.829 70.9C870.829 70.8862 870.831 70.8696 870.834 70.8532C870.838 70.8371 870.842 70.8286 870.842 70.8292C870.841 70.8311 870.815 70.8858 870.715 70.9858L873.543 73.8142C874.29 73.0668 874.829 72.0838 874.829 70.9H870.829ZM870.715 70.9858C870.704 70.9969 870.699 70.9997 870.701 70.9984C870.703 70.9969 870.707 70.9947 870.711 70.993C870.715 70.9915 870.713 70.9928 870.702 70.9948C870.691 70.9968 870.668 71 870.629 71V75C871.724 75 872.744 74.6138 873.543 73.8142L870.715 70.9858ZM870.629 71H858.329V75H870.629V71ZM858.329 71C857.82 71 857.56 70.8905 857.426 70.8029C857.303 70.7221 857.142 70.5654 856.998 70.188L853.26 71.612C853.649 72.6346 854.288 73.5279 855.232 74.1471C856.165 74.7595 857.238 75 858.329 75V71ZM856.997 70.1857L853.097 59.9857L849.361 61.4143L853.261 71.6143L856.997 70.1857ZM851.229 58.7H824.529V62.7H851.229V58.7ZM822.655 60.0018L818.855 70.2018L822.603 71.5982L826.403 61.3982L822.655 60.0018ZM818.86 70.188C818.723 70.5482 818.564 70.7022 818.43 70.7877C818.279 70.8837 817.987 71 817.429 71V75C818.538 75 819.629 74.7663 820.578 74.1623C821.543 73.5478 822.202 72.6518 822.598 71.612L818.86 70.188ZM817.429 71H805.129V75H817.429V71ZM849.115 45.6355L839.815 19.2355L836.043 20.5645L845.343 46.9645L849.115 45.6355ZM836.043 19.2355L826.743 45.6355L830.515 46.9645L839.815 20.5645L836.043 19.2355ZM828.629 48.3H847.229V44.3H828.629V48.3Z" fill="white"/>
</svg>
