<svg width="27" height="27" viewBox="0 0 27 27" fill="none" xmlns="http://www.w3.org/2000/svg">
<g clip-path="url(#clip0)">
<path d="M19.6916 0H7.30865C3.27859 0 0 3.27859 0 7.30864V19.6913C0 23.7214 3.27859 26.9999 7.30865 26.9999H19.6916C23.7214 26.9999 27 23.7214 27 19.6913V7.30864C27 3.27859 23.7214 0 19.6916 0ZM25.4171 19.6913C25.4171 22.8486 22.8486 25.4171 19.6916 25.4171H7.30865C4.15139 25.4171 1.58286 22.8486 1.58286 19.6913V7.30864C1.58286 4.15138 4.15139 1.58285 7.30865 1.58285H19.6916C22.8486 1.58285 25.4171 4.15138 25.4171 7.30864V19.6913Z" fill="white"/>
<path d="M11.5569 13.0925C12.4237 12.7151 12.8575 11.9041 12.8575 10.6595C12.8575 8.8643 11.8323 7.96658 9.78185 7.96658H6.82872C6.59389 7.96658 6.38995 8.02261 6.21671 8.13488C6.04306 8.24715 5.95654 8.4002 5.95654 8.59383V18.5396C5.95654 18.703 6.03812 18.8457 6.20147 18.9681C6.36441 19.0904 6.5737 19.1516 6.82872 19.1516H10.0727C11.011 19.1516 11.7557 18.8941 12.3067 18.3789C12.8575 17.8639 13.1329 17.0402 13.1329 15.9078V15.5865C13.1329 14.8725 13.0001 14.3293 12.735 13.9569C12.4697 13.5846 12.077 13.2967 11.5569 13.0925ZM7.93037 9.71093H9.62879C10.0165 9.71093 10.3199 9.82567 10.5393 10.0551C10.7585 10.2846 10.8683 10.5984 10.8683 10.9961C10.8683 11.4042 10.7636 11.7255 10.5545 11.9602C10.3454 12.1948 10.042 12.312 9.64424 12.312H7.93037V9.71093ZM11.1437 15.7395C11.1437 16.8515 10.6489 17.4075 9.65948 17.4075H7.93037V13.8728H9.65948C10.1491 13.8728 10.5187 14.0005 10.7688 14.2554C11.0186 14.5104 11.1437 14.9236 11.1437 15.4948V15.7395Z" fill="white"/>
<path d="M20.1256 16.0302C20.3396 16.0302 20.513 16.0201 20.6457 15.9999C20.7782 15.9797 20.9236 15.9291 21.0818 15.8483C21.2398 15.7676 21.3572 15.6285 21.4336 15.4316C21.5103 15.2347 21.5486 14.9848 21.5486 14.6816C21.5486 13.8516 21.2398 13.1624 20.6228 12.6142C20.0055 12.0661 19.2633 11.7917 18.3965 11.7917C17.468 11.7917 16.6774 12.0928 16.0246 12.6946C15.3718 13.2965 15.0453 14.0158 15.0453 14.8521V16.1526C15.0453 17.0913 15.3898 17.8487 16.0782 18.4249C16.7668 19.0012 17.6567 19.2894 18.7483 19.2894C19.5134 19.2894 20.1534 19.1494 20.6686 18.8686C21.1835 18.5882 21.4415 18.305 21.4415 18.0193C21.4415 17.8357 21.37 17.6444 21.2272 17.4456C21.0843 17.2466 20.9059 17.1471 20.6916 17.1471C20.5792 17.1471 20.3344 17.2443 19.9571 17.438C19.5797 17.6318 19.1972 17.7286 18.8095 17.7286C18.2687 17.7286 17.8353 17.5935 17.509 17.3232C17.1823 17.053 17.0194 16.6984 17.0194 16.2597V16.0302H20.1256ZM17.0194 14.4671C17.0194 14.1338 17.1518 13.8646 17.4172 13.6598C17.6823 13.4551 17.9933 13.3525 18.3505 13.3525C18.7277 13.3525 19.0468 13.4576 19.3069 13.6668C19.5669 13.8765 19.6971 14.1483 19.6971 14.4815C19.6971 14.634 19.6637 14.7364 19.5976 14.7887C19.5311 14.8412 19.4163 14.8674 19.2534 14.8674H17.0194V14.4671Z" fill="white"/>
<path d="M20.7978 9.37964H15.8477C15.4106 9.37964 15.0561 9.73415 15.0561 10.1711C15.0561 10.6082 15.4106 10.9627 15.8477 10.9627H20.7978C21.2349 10.9627 21.5894 10.6082 21.5894 10.1711C21.5894 9.73415 21.2349 9.37964 20.7978 9.37964Z" fill="white"/>
</g>
<defs>
<clipPath id="clip0">
<rect width="27" height="27" fill="white"/>
</clipPath>
</defs>
</svg>
