<svg width="27" height="27" viewBox="0 0 27 27" fill="none" xmlns="http://www.w3.org/2000/svg">
<path d="M13.5 0C6.05602 0 0 6.05602 0 13.5C0 20.944 6.05602 27 13.5 27C20.944 27 27 20.944 27 13.5C27 6.05602 20.944 0 13.5 0ZM25.3125 13.5017C22.0345 12.6474 19.1738 12.6128 16.7054 13.0815C16.3447 12.2508 15.9739 11.4493 15.598 10.6852C18.1887 9.64364 20.6423 8.11012 22.5328 5.90203C24.2646 7.95783 25.3125 10.608 25.3125 13.5C25.3125 13.5008 25.3125 13.5008 25.3125 13.5017ZM21.3566 4.70306C19.626 6.76941 17.2918 8.18522 14.8175 9.15342C13.0815 5.86322 11.3864 3.38808 10.4482 2.10178C11.4235 1.8398 12.4436 1.6875 13.5 1.6875C16.5181 1.6875 19.2662 2.83458 21.3566 4.70306ZM8.77374 2.68186C9.53522 3.70617 11.3265 6.23405 13.1878 9.72506C8.57756 11.1611 3.85805 11.2379 1.91742 11.194C2.67722 7.37142 5.2882 4.21031 8.77374 2.68186ZM1.6875 13.5C1.6875 13.2916 1.70902 13.0887 1.71872 12.8828C2.03428 12.8933 2.42409 12.9018 2.88225 12.9018C5.34769 12.9018 9.70312 12.6596 13.9805 11.2679C14.3332 11.9791 14.6825 12.7212 15.0247 13.4924C9.35255 15.1989 6.06825 19.5075 4.81992 21.4831C2.88225 19.3784 1.6875 16.5793 1.6875 13.5ZM6.0577 22.6619C6.98077 21.0558 9.99295 16.594 15.671 15.0137C16.8172 17.8335 17.8002 20.9676 18.3482 24.2603C16.8666 24.9303 15.2288 25.3125 13.5 25.3125C10.6802 25.3125 8.09156 24.3165 6.0577 22.6619ZM19.9163 23.4044C19.3501 20.2833 18.4275 17.3268 17.361 14.6496C19.6007 14.2944 22.1961 14.3948 25.1741 15.2124C24.6729 18.6401 22.7036 21.5924 19.9163 23.4044Z" fill="white"/>
</svg>
