<svg width="27" height="27" viewBox="0 0 27 27" fill="none" xmlns="http://www.w3.org/2000/svg">
<path d="M19.6913 0H7.30864C3.27859 0 0 3.27859 0 7.30864V19.6915C0 23.7214 3.27859 26.9999 7.30864 26.9999H19.6915C23.7214 26.9999 26.9999 23.7214 26.9999 19.6915V7.30864C26.9999 3.27859 23.7214 0 19.6913 0V0ZM25.4171 19.6915C25.4171 22.8486 22.8486 25.4171 19.6913 25.4171H7.30864C4.15138 25.4171 1.58285 22.8486 1.58285 19.6915V7.30864C1.58285 4.15138 4.15138 1.58285 7.30864 1.58285H19.6915C22.8486 1.58285 25.4171 4.15138 25.4171 7.30864V19.6915Z" fill="white"/>
<path d="M13.5 6.11731C9.42912 6.11731 6.11737 9.42906 6.11737 13.4999C6.11737 17.5707 9.42912 20.8825 13.5 20.8825C17.5708 20.8825 20.8826 17.5707 20.8826 13.4999C20.8826 9.42906 17.5708 6.11731 13.5 6.11731ZM13.5 19.2996C10.3021 19.2996 7.70022 16.6979 7.70022 13.4999C7.70022 10.3021 10.3021 7.70016 13.5 7.70016C16.698 7.70016 19.2997 10.3021 19.2997 13.4999C19.2997 16.6979 16.698 19.2996 13.5 19.2996Z" fill="white"/>
<path d="M21.0591 3.49551C19.8561 3.49551 18.8776 4.47419 18.8776 5.67698C18.8776 6.87998 19.8561 7.85866 21.0591 7.85866C22.2621 7.85866 23.2408 6.87998 23.2408 5.67698C23.2408 4.47398 22.2621 3.49551 21.0591 3.49551ZM21.0591 6.2756C20.7291 6.2756 20.4605 6.00698 20.4605 5.67698C20.4605 5.34678 20.7291 5.07837 21.0591 5.07837C21.3893 5.07837 21.6579 5.34678 21.6579 5.67698C21.6579 6.00698 21.3893 6.2756 21.0591 6.2756Z" fill="white"/>
</svg>
