<svg width="1195" height="105" viewBox="0 0 1195 105" fill="none" xmlns="http://www.w3.org/2000/svg">
<path d="M2.5 91C1.76667 91 1.16667 90.7667 0.700001 90.3C0.233334 89.8333 2.98023e-08 89.2333 2.98023e-08 88.5V23.5C2.98023e-08 22.7667 0.233334 22.1667 0.700001 21.7C1.23333 21.2333 1.83333 21 2.5 21H58C58.7333 21 59.3333 21.2333 59.8 21.7C60.2667 22.1667 60.5 22.7667 60.5 23.5V88.5C60.5 89.2333 60.2667 89.8333 59.8 90.3C59.3333 90.7667 58.7333 91 58 91H45.1C44.3667 91 43.7667 90.7667 43.3 90.3C42.8333 89.8333 42.6 89.2333 42.6 88.5V37H18V88.5C18 89.2333 17.7333 89.8333 17.2 90.3C16.7333 90.7667 16.1333 91 15.4 91H2.5ZM77.0117 91C76.3451 91 75.7451 90.7667 75.2117 90.3C74.7451 89.7667 74.5117 89.1667 74.5117 88.5V23.5C74.5117 22.7667 74.7451 22.1667 75.2117 21.7C75.7451 21.2333 76.3451 21 77.0117 21H105.012C113.545 21 120.245 22.9667 125.112 26.9C130.045 30.8333 132.512 36.5667 132.512 44.1C132.512 51.5667 130.078 57.2 125.212 61C120.345 64.7333 113.612 66.6 105.012 66.6H93.1117V88.5C93.1117 89.2333 92.8451 89.8333 92.3117 90.3C91.8451 90.7667 91.2451 91 90.5117 91H77.0117ZM104.512 52.8C107.445 52.8 109.745 52.0667 111.412 50.6C113.078 49.0667 113.912 46.8333 113.912 43.9C113.912 41.1667 113.112 39 111.512 37.4C109.978 35.7333 107.645 34.9 104.512 34.9H92.8117V52.8H104.512ZM170.69 92C161.29 92 153.89 89.7 148.49 85.1C143.09 80.5 140.223 73.7333 139.89 64.8C139.823 62.8667 139.79 60 139.79 56.2C139.79 52.3333 139.823 49.4333 139.89 47.5C140.223 38.7 143.123 31.9333 148.59 27.2C154.123 22.4 161.49 20 170.69 20C179.89 20 187.257 22.4 192.79 27.2C198.323 31.9333 201.223 38.7 201.49 47.5C201.623 51.3667 201.69 54.2667 201.69 56.2C201.69 58.0667 201.623 60.9333 201.49 64.8C201.157 73.7333 198.29 80.5 192.89 85.1C187.49 89.7 180.09 92 170.69 92ZM170.69 77.6C174.357 77.6 177.257 76.5 179.39 74.3C181.59 72.1 182.757 68.7333 182.89 64.2C183.023 60.3333 183.09 57.6 183.09 56C183.09 54.2667 183.023 51.5333 182.89 47.8C182.757 43.2667 181.59 39.9 179.39 37.7C177.19 35.5 174.29 34.4 170.69 34.4C167.09 34.4 164.19 35.5 161.99 37.7C159.857 39.9 158.69 43.2667 158.49 47.8C158.423 49.6667 158.39 52.4 158.39 56C158.39 59.5333 158.423 62.2667 158.49 64.2C158.69 68.7333 159.857 72.1 161.99 74.3C164.123 76.5 167.023 77.6 170.69 77.6ZM211.781 105C211.048 105 210.415 104.767 209.881 104.3C209.415 103.833 209.181 103.233 209.181 102.5V77.5C209.181 76.7667 209.415 76.1667 209.881 75.7C210.415 75.2333 211.048 75 211.781 75H213.581C216.581 75 218.715 72.2667 219.981 66.8C221.315 61.3333 221.981 53.6667 221.981 43.8V23.5C221.981 22.7667 222.215 22.1667 222.681 21.7C223.215 21.2333 223.815 21 224.481 21H271.481C272.215 21 272.815 21.2333 273.281 21.7C273.748 22.1667 273.981 22.7667 273.981 23.5V75H278.681C279.415 75 280.015 75.2333 280.481 75.7C281.015 76.1667 281.281 76.7667 281.281 77.5V102.5C281.281 103.233 281.015 103.833 280.481 104.3C280.015 104.767 279.415 105 278.681 105H265.781C265.115 105 264.515 104.767 263.981 104.3C263.515 103.833 263.281 103.233 263.281 102.5V91H227.181V102.5C227.181 103.233 226.948 103.833 226.481 104.3C226.015 104.767 225.415 105 224.681 105H211.781ZM256.081 75V37H239.381V46.1C239.381 59.6333 237.848 69.2667 234.781 75H256.081ZM294.004 91C293.337 91 292.737 90.7667 292.204 90.3C291.737 89.7667 291.504 89.1667 291.504 88.5V23.5C291.504 22.7667 291.737 22.1667 292.204 21.7C292.737 21.2333 293.337 21 294.004 21H324.504C332.904 21 339.137 22.7333 343.204 26.2C347.337 29.6 349.404 34.4667 349.404 40.8C349.404 44.1333 348.537 46.9667 346.804 49.3C345.137 51.5667 343.237 53.2333 341.104 54.3C343.837 55.5667 346.137 57.6 348.004 60.4C349.871 63.2 350.804 66.3333 350.804 69.8C350.804 76.4667 348.604 81.6667 344.204 85.4C339.804 89.1333 333.537 91 325.404 91H294.004ZM322.504 48.8C325.171 48.8 327.204 48.1333 328.604 46.8C330.004 45.4 330.704 43.5667 330.704 41.3C330.704 39.1 330.004 37.3333 328.604 36C327.204 34.6667 325.171 34 322.504 34H309.504V48.8H322.504ZM323.404 78C326.137 78 328.271 77.2 329.804 75.6C331.337 74 332.104 72.0667 332.104 69.8C332.104 67.4 331.337 65.4333 329.804 63.9C328.271 62.3 326.137 61.5 323.404 61.5H309.504V78H323.404ZM364.414 91C363.681 91 363.081 90.7667 362.614 90.3C362.147 89.7667 361.914 89.1333 361.914 88.4V23.5C361.914 22.7667 362.147 22.1667 362.614 21.7C363.147 21.2333 363.747 21 364.414 21H377.314C378.047 21 378.647 21.2333 379.114 21.7C379.647 22.1667 379.914 22.7667 379.914 23.5V63.7L408.314 22.9C409.114 21.6333 410.247 21 411.714 21H423.314C424.047 21 424.647 21.2333 425.114 21.7C425.581 22.1667 425.814 22.7667 425.814 23.5V88.5C425.814 89.1667 425.581 89.7667 425.114 90.3C424.647 90.7667 424.047 91 423.314 91H410.414C409.681 91 409.047 90.7667 408.514 90.3C408.047 89.8333 407.814 89.2333 407.814 88.5V49.7L379.414 89.1C378.547 90.3667 377.414 91 376.014 91H364.414ZM537.144 87.6C537.344 87.8667 537.444 88.2333 537.444 88.7C537.444 89.3667 537.21 89.9333 536.744 90.4C536.344 90.8 535.81 91 535.144 91H520.344C519.41 91 518.71 90.8333 518.244 90.5C517.844 90.1667 517.377 89.7 516.844 89.1L501.544 63.6H494.944V88.5C494.944 89.2333 494.71 89.8333 494.244 90.3C493.777 90.7667 493.177 91 492.444 91H480.144C479.41 91 478.81 90.7667 478.344 90.3C477.877 89.8333 477.644 89.2333 477.644 88.5V63.6H471.044L455.744 89.1C455.21 89.7 454.71 90.1667 454.244 90.5C453.844 90.8333 453.177 91 452.244 91H437.444C436.777 91 436.21 90.8 435.744 90.4C435.344 89.9333 435.144 89.3667 435.144 88.7C435.144 88.2333 435.244 87.8667 435.444 87.6L455.844 54.7L437.244 24.3C436.977 23.7667 436.844 23.3667 436.844 23.1C436.844 22.5 437.044 22 437.444 21.6C437.844 21.2 438.344 21 438.944 21H453.344C455.077 21 456.31 21.6333 457.044 22.9L471.744 47.7L477.644 47.6V23.5C477.644 22.7667 477.877 22.1667 478.344 21.7C478.877 21.2333 479.477 21 480.144 21H492.444C493.177 21 493.777 21.2333 494.244 21.7C494.71 22.1667 494.944 22.7667 494.944 23.5V47.6L500.744 47.7L515.444 22.9C516.177 21.6333 517.41 21 519.144 21H533.644C534.244 21 534.744 21.2 535.144 21.6C535.544 22 535.744 22.5 535.744 23.1C535.744 23.3667 535.61 23.7667 535.344 24.3L516.744 54.7L537.144 87.6ZM549.277 91C548.611 91 548.011 90.7667 547.477 90.3C547.011 89.7667 546.777 89.1667 546.777 88.5V23.5C546.777 22.7667 547.011 22.1667 547.477 21.7C548.011 21.2333 548.611 21 549.277 21H595.977C596.711 21 597.311 21.2333 597.777 21.7C598.244 22.1667 598.477 22.7667 598.477 23.5V32.9C598.477 33.5667 598.244 34.1667 597.777 34.7C597.311 35.1667 596.711 35.4 595.977 35.4H564.077V48.9H593.777C594.511 48.9 595.111 49.1667 595.577 49.7C596.044 50.1667 596.277 50.7667 596.277 51.5V60.2C596.277 60.8667 596.044 61.4667 595.577 62C595.111 62.4667 594.511 62.7 593.777 62.7H564.077V76.6H596.777C597.511 76.6 598.111 76.8333 598.577 77.3C599.044 77.7667 599.277 78.3667 599.277 79.1V88.5C599.277 89.1667 599.044 89.7667 598.577 90.3C598.111 90.7667 597.511 91 596.777 91H549.277ZM613.145 91C612.411 91 611.811 90.7667 611.345 90.3C610.878 89.8333 610.645 89.2333 610.645 88.5V23.5C610.645 22.7667 610.878 22.1667 611.345 21.7C611.878 21.2333 612.478 21 613.145 21H626.045C626.778 21 627.378 21.2333 627.845 21.7C628.378 22.1667 628.645 22.7667 628.645 23.5V47.6H653.245V23.5C653.245 22.7667 653.478 22.1667 653.945 21.7C654.411 21.2333 655.011 21 655.745 21H668.645C669.378 21 669.978 21.2333 670.445 21.7C670.911 22.1667 671.145 22.7667 671.145 23.5V88.5C671.145 89.2333 670.911 89.8333 670.445 90.3C669.978 90.7667 669.378 91 668.645 91H655.745C655.011 91 654.411 90.7667 653.945 90.3C653.478 89.8333 653.245 89.2333 653.245 88.5V63.6H628.645V88.5C628.645 89.2333 628.378 89.8333 627.845 90.3C627.378 90.7667 626.778 91 626.045 91H613.145ZM687.656 91C686.923 91 686.323 90.7667 685.856 90.3C685.39 89.7667 685.156 89.1333 685.156 88.4V23.5C685.156 22.7667 685.39 22.1667 685.856 21.7C686.39 21.2333 686.99 21 687.656 21H700.556C701.29 21 701.89 21.2333 702.356 21.7C702.89 22.1667 703.156 22.7667 703.156 23.5V63.7L731.556 22.9C732.356 21.6333 733.49 21 734.956 21H746.556C747.29 21 747.89 21.2333 748.356 21.7C748.823 22.1667 749.056 22.7667 749.056 23.5V88.5C749.056 89.1667 748.823 89.7667 748.356 90.3C747.89 90.7667 747.29 91 746.556 91H733.656C732.923 91 732.29 90.7667 731.756 90.3C731.29 89.8333 731.056 89.2333 731.056 88.5V49.7L702.656 89.1C701.79 90.3667 700.656 91 699.256 91H687.656ZM765.586 91C764.919 91 764.319 90.7667 763.786 90.3C763.319 89.7667 763.086 89.1667 763.086 88.5V23.5C763.086 22.7667 763.319 22.1667 763.786 21.7C764.319 21.2333 764.919 21 765.586 21H812.286C813.019 21 813.619 21.2333 814.086 21.7C814.553 22.1667 814.786 22.7667 814.786 23.5V32.9C814.786 33.5667 814.553 34.1667 814.086 34.7C813.619 35.1667 813.019 35.4 812.286 35.4H780.386V48.9H810.086C810.819 48.9 811.419 49.1667 811.886 49.7C812.353 50.1667 812.586 50.7667 812.586 51.5V60.2C812.586 60.8667 812.353 61.4667 811.886 62C811.419 62.4667 810.819 62.7 810.086 62.7H780.386V76.6H813.086C813.819 76.6 814.419 76.8333 814.886 77.3C815.353 77.7667 815.586 78.3667 815.586 79.1V88.5C815.586 89.1667 815.353 89.7667 814.886 90.3C814.419 90.7667 813.819 91 813.086 91H765.586Z" fill="white"/>
<path d="M876.942 92C867.409 92 859.942 89.7 854.542 85.1C849.209 80.4333 846.376 73.7 846.042 64.9C845.976 63.1 845.942 60.1667 845.942 56.1C845.942 51.9667 845.976 48.9667 846.042 47.1C846.376 38.4333 849.276 31.7667 854.742 27.1C860.209 22.3667 867.609 20 876.942 20C882.809 20 888.076 21 892.742 23C897.409 24.9333 901.076 27.7333 903.742 31.4C906.476 35 907.876 39.2333 907.942 44.1V44.3C907.942 44.8333 907.709 45.3 907.242 45.7C906.842 46.0333 906.376 46.2 905.842 46.2H892.342C891.476 46.2 890.809 46.0333 890.342 45.7C889.876 45.3 889.476 44.6 889.142 43.6C888.209 40.2 886.742 37.8333 884.742 36.5C882.742 35.1 880.109 34.4 876.842 34.4C868.976 34.4 864.909 38.8 864.642 47.6C864.576 49.4 864.542 52.1667 864.542 55.9C864.542 59.6333 864.576 62.4667 864.642 64.4C864.909 73.2 868.976 77.6 876.842 77.6C880.109 77.6 882.776 76.9 884.842 75.5C886.909 74.0333 888.342 71.6667 889.142 68.4C889.409 67.4 889.776 66.7333 890.242 66.4C890.709 66 891.409 65.8 892.342 65.8H905.842C906.442 65.8 906.942 66 907.342 66.4C907.809 66.8 908.009 67.3 907.942 67.9C907.876 72.7667 906.476 77.0333 903.742 80.7C901.076 84.3 897.409 87.1 892.742 89.1C888.076 91.0333 882.809 92 876.942 92ZM914.457 91C913.924 91 913.424 90.8 912.957 90.4C912.557 89.9333 912.357 89.4333 912.357 88.9C912.357 88.5 912.39 88.2 912.457 88L935.957 23.8C936.157 23 936.59 22.3333 937.257 21.8C937.924 21.2667 938.79 21 939.857 21H954.657C955.724 21 956.59 21.2667 957.257 21.8C957.924 22.3333 958.357 23 958.557 23.8L981.957 88L982.157 88.9C982.157 89.4333 981.924 89.9333 981.457 90.4C981.057 90.8 980.557 91 979.957 91H967.657C966.057 91 964.99 90.3 964.457 88.9L960.557 78.7H933.857L930.057 88.9C929.524 90.3 928.424 91 926.757 91H914.457ZM956.557 64.3L947.257 37.9L937.957 64.3H956.557ZM992.539 91C991.806 91 991.206 90.7667 990.739 90.3C990.272 89.7667 990.039 89.1333 990.039 88.4V23.5C990.039 22.7667 990.272 22.1667 990.739 21.7C991.272 21.2333 991.872 21 992.539 21H1005.44C1006.17 21 1006.77 21.2333 1007.24 21.7C1007.77 22.1667 1008.04 22.7667 1008.04 23.5V63.7L1036.44 22.9C1037.24 21.6333 1038.37 21 1039.84 21H1051.44C1052.17 21 1052.77 21.2333 1053.24 21.7C1053.71 22.1667 1053.94 22.7667 1053.94 23.5V88.5C1053.94 89.1667 1053.71 89.7667 1053.24 90.3C1052.77 90.7667 1052.17 91 1051.44 91H1038.54C1037.81 91 1037.17 90.7667 1036.64 90.3C1036.17 89.8333 1035.94 89.2333 1035.94 88.5V49.7L1007.54 89.1C1006.67 90.3667 1005.54 91 1004.14 91H992.539ZM1022.34 16.9C1016.27 16.9 1011.81 15.6 1008.94 13C1006.07 10.3333 1004.64 6.86666 1004.64 2.59999C1004.64 2.06666 1004.81 1.63333 1005.14 1.3C1005.47 0.899996 1005.94 0.699994 1006.54 0.699994H1014.54C1015.14 0.699994 1015.61 0.899996 1015.94 1.3C1016.27 1.63333 1016.44 2.06666 1016.44 2.59999C1016.44 6.13333 1018.41 7.9 1022.34 7.9C1026.34 7.9 1028.34 6.13333 1028.34 2.59999C1028.34 2.06666 1028.51 1.63333 1028.84 1.3C1029.17 0.899996 1029.64 0.699994 1030.24 0.699994H1038.24C1038.84 0.699994 1039.31 0.899996 1039.64 1.3C1039.97 1.63333 1040.14 2.06666 1040.14 2.59999C1040.14 6.86666 1038.67 10.3333 1035.74 13C1032.87 15.6 1028.41 16.9 1022.34 16.9ZM1085.87 91C1085.2 91 1084.6 90.7667 1084.07 90.3C1083.6 89.7667 1083.37 89.1667 1083.37 88.5V36.7H1065.57C1064.9 36.7 1064.3 36.4667 1063.77 36C1063.3 35.4667 1063.07 34.8667 1063.07 34.2V23.5C1063.07 22.7667 1063.3 22.1667 1063.77 21.7C1064.3 21.2333 1064.9 21 1065.57 21H1119.37C1120.1 21 1120.7 21.2333 1121.17 21.7C1121.64 22.1667 1121.87 22.7667 1121.87 23.5V34.2C1121.87 34.9333 1121.64 35.5333 1121.17 36C1120.7 36.4667 1120.1 36.7 1119.37 36.7H1101.57V88.5C1101.57 89.1667 1101.34 89.7667 1100.87 90.3C1100.4 90.7667 1099.8 91 1099.07 91H1085.87ZM1126.96 91C1126.42 91 1125.92 90.8 1125.46 90.4C1125.06 89.9333 1124.86 89.4333 1124.86 88.9C1124.86 88.5 1124.89 88.2 1124.96 88L1148.46 23.8C1148.66 23 1149.09 22.3333 1149.76 21.8C1150.42 21.2667 1151.29 21 1152.36 21H1167.16C1168.22 21 1169.09 21.2667 1169.76 21.8C1170.42 22.3333 1170.86 23 1171.06 23.8L1194.46 88L1194.66 88.9C1194.66 89.4333 1194.42 89.9333 1193.96 90.4C1193.56 90.8 1193.06 91 1192.46 91H1180.16C1178.56 91 1177.49 90.3 1176.96 88.9L1173.06 78.7H1146.36L1142.56 88.9C1142.02 90.3 1140.92 91 1139.26 91H1126.96ZM1169.06 64.3L1159.76 37.9L1150.46 64.3H1169.06Z" fill="#717171"/>
</svg>
