<svg width="448" height="119" viewBox="0 0 448 119" fill="none" xmlns="http://www.w3.org/2000/svg">
<mask id="mask0" mask-type="alpha" maskUnits="userSpaceOnUse" x="2" y="3" width="439" height="105">
<path d="M5.5 108C4.76667 108 4.13333 107.767 3.6 107.3C3.13333 106.833 2.9 106.233 2.9 105.5V80.5C2.9 79.7667 3.13333 79.1667 3.6 78.7C4.13333 78.2333 4.76667 78 5.5 78H7.3C10.3 78 12.4333 75.2667 13.7 69.8C15.0333 64.3333 15.7 56.6667 15.7 46.8V26.5C15.7 25.7667 15.9333 25.1667 16.4 24.7C16.9333 24.2333 17.5333 24 18.2 24H65.2C65.9333 24 66.5333 24.2333 67 24.7C67.4667 25.1667 67.7 25.7667 67.7 26.5V78H72.4C73.1333 78 73.7333 78.2333 74.2 78.7C74.7333 79.1667 75 79.7667 75 80.5V105.5C75 106.233 74.7333 106.833 74.2 107.3C73.7333 107.767 73.1333 108 72.4 108H59.5C58.8333 108 58.2333 107.767 57.7 107.3C57.2333 106.833 57 106.233 57 105.5V94H20.9V105.5C20.9 106.233 20.6667 106.833 20.2 107.3C19.7333 107.767 19.1333 108 18.4 108H5.5ZM49.8 78V40H33.1V49.1C33.1 62.6333 31.5667 72.2667 28.5 78H49.8ZM87.7227 94C86.9893 94 86.3893 93.7667 85.9227 93.3C85.456 92.7667 85.2227 92.1333 85.2227 91.4V26.5C85.2227 25.7667 85.456 25.1667 85.9227 24.7C86.456 24.2333 87.056 24 87.7227 24H100.623C101.356 24 101.956 24.2333 102.423 24.7C102.956 25.1667 103.223 25.7667 103.223 26.5V66.7L131.623 25.9C132.423 24.6333 133.556 24 135.023 24H146.623C147.356 24 147.956 24.2333 148.423 24.7C148.889 25.1667 149.123 25.7667 149.123 26.5V91.5C149.123 92.1667 148.889 92.7667 148.423 93.3C147.956 93.7667 147.356 94 146.623 94H133.723C132.989 94 132.356 93.7667 131.823 93.3C131.356 92.8333 131.123 92.2333 131.123 91.5V52.7L102.723 92.1C101.856 93.3667 100.723 94 99.3227 94H87.7227ZM189.352 95C182.886 95 177.486 94.1 173.152 92.3C168.886 90.4333 165.686 88.0333 163.552 85.1C161.419 82.1667 160.186 79 159.852 75.6V75.4C159.852 74.8667 160.052 74.4333 160.452 74.1C160.919 73.7667 161.452 73.6 162.052 73.6H174.852C176.252 73.6 177.286 74.2 177.952 75.4C179.619 78.9333 183.286 80.7 188.952 80.7C192.552 80.7 195.386 80.0333 197.452 78.7C199.586 77.3 200.652 75.3667 200.652 72.9C200.652 70.3667 199.686 68.4333 197.752 67.1C195.819 65.7667 193.119 65.1 189.652 65.1H182.252C181.586 65.1 180.986 64.8667 180.452 64.4C179.986 63.8667 179.752 63.2333 179.752 62.5V54.4C179.752 53.6667 179.986 53.0667 180.452 52.6C180.986 52.0667 181.586 51.8 182.252 51.8H189.452C192.319 51.8 194.586 51.2 196.252 50C197.919 48.8 198.752 47 198.752 44.6C198.752 42.4667 197.886 40.7333 196.152 39.4C194.486 38.0667 192.119 37.4 189.052 37.4C186.119 37.4 183.752 37.8667 181.952 38.8C180.219 39.7333 179.119 41.0667 178.652 42.8C178.319 43.4667 177.952 43.9333 177.552 44.2C177.152 44.4667 176.586 44.6 175.852 44.6H162.652C162.052 44.6 161.519 44.4 161.052 44C160.652 43.5333 160.486 43 160.552 42.4C160.886 38.9333 162.052 35.7667 164.052 32.9C166.119 29.9667 169.252 27.6 173.452 25.8C177.719 23.9333 183.052 23 189.452 23C194.986 23 199.852 23.9 204.052 25.7C208.252 27.5 211.486 29.9333 213.752 33C216.019 36 217.152 39.3 217.152 42.9C217.152 49.5 214.519 54.2667 209.252 57.2C212.719 58.8667 215.252 61.2 216.852 64.2C218.452 67.1333 219.252 70.3 219.252 73.7C219.252 77.9 218.019 81.6333 215.552 84.9C213.152 88.1 209.686 90.6 205.152 92.4C200.686 94.1333 195.419 95 189.352 95ZM226.34 94C225.807 94 225.307 93.8 224.84 93.4C224.44 92.9333 224.24 92.4333 224.24 91.9C224.24 91.5 224.273 91.2 224.34 91L247.84 26.8C248.04 26 248.473 25.3333 249.14 24.8C249.807 24.2667 250.673 24 251.74 24H266.54C267.607 24 268.473 24.2667 269.14 24.8C269.807 25.3333 270.24 26 270.44 26.8L293.84 91L294.04 91.9C294.04 92.4333 293.807 92.9333 293.34 93.4C292.94 93.8 292.44 94 291.84 94H279.54C277.94 94 276.873 93.3 276.34 91.9L272.44 81.7H245.74L241.94 91.9C241.407 93.3 240.307 94 238.64 94H226.34ZM268.44 67.3L259.14 40.9L249.84 67.3H268.44ZM304.422 94C303.689 94 303.089 93.7667 302.622 93.3C302.155 92.7667 301.922 92.1333 301.922 91.4V26.5C301.922 25.7667 302.155 25.1667 302.622 24.7C303.155 24.2333 303.755 24 304.422 24H317.322C318.055 24 318.655 24.2333 319.122 24.7C319.655 25.1667 319.922 25.7667 319.922 26.5V66.7L348.322 25.9C349.122 24.6333 350.255 24 351.722 24H363.322C364.055 24 364.655 24.2333 365.122 24.7C365.589 25.1667 365.822 25.7667 365.822 26.5V91.5C365.822 92.1667 365.589 92.7667 365.122 93.3C364.655 93.7667 364.055 94 363.322 94H350.422C349.689 94 349.055 93.7667 348.522 93.3C348.055 92.8333 347.822 92.2333 347.822 91.5V52.7L319.422 92.1C318.555 93.3667 317.422 94 316.022 94H304.422ZM334.222 19.9C328.155 19.9 323.689 18.6 320.822 16C317.955 13.3333 316.522 9.86666 316.522 5.59999C316.522 5.06666 316.689 4.63333 317.022 4.3C317.355 3.9 317.822 3.69999 318.422 3.69999H326.422C327.022 3.69999 327.489 3.9 327.822 4.3C328.155 4.63333 328.322 5.06666 328.322 5.59999C328.322 9.13333 330.289 10.9 334.222 10.9C338.222 10.9 340.222 9.13333 340.222 5.59999C340.222 5.06666 340.389 4.63333 340.722 4.3C341.055 3.9 341.522 3.69999 342.122 3.69999H350.122C350.722 3.69999 351.189 3.9 351.522 4.3C351.855 4.63333 352.022 5.06666 352.022 5.59999C352.022 9.86666 350.555 13.3333 347.622 16C344.755 18.6 340.289 19.9 334.222 19.9ZM382.352 94C381.618 94 381.018 93.7667 380.552 93.3C380.085 92.8333 379.852 92.2333 379.852 91.5V26.5C379.852 25.7667 380.085 25.1667 380.552 24.7C381.085 24.2333 381.685 24 382.352 24H395.252C395.985 24 396.585 24.2333 397.052 24.7C397.585 25.1667 397.852 25.7667 397.852 26.5V50.6H422.452V26.5C422.452 25.7667 422.685 25.1667 423.152 24.7C423.618 24.2333 424.218 24 424.952 24H437.852C438.585 24 439.185 24.2333 439.652 24.7C440.118 25.1667 440.352 25.7667 440.352 26.5V91.5C440.352 92.2333 440.118 92.8333 439.652 93.3C439.185 93.7667 438.585 94 437.852 94H424.952C424.218 94 423.618 93.7667 423.152 93.3C422.685 92.8333 422.452 92.2333 422.452 91.5V66.6H397.852V91.5C397.852 92.2333 397.585 92.8333 397.052 93.3C396.585 93.7667 395.985 94 395.252 94H382.352Z" fill="white"/>
</mask>
<g mask="url(#mask0)">
<rect y="22" width="41" height="111" fill="white"/>
<rect x="120" y="10" width="46" height="44" fill="white"/>
<rect x="389" y="4" width="59" height="35" fill="white"/>
<rect x="223" y="72" width="74" height="27" fill="white"/>
<path d="M751.438 -51.4899L754.429 -52.0001L877.2 154.49L874.209 155L751.438 -51.4899Z" fill="white"/>
<path d="M-150.145 -51.4899L-147.155 -52.0001L-24.3832 154.49L-27.3739 155L-150.145 -51.4899Z" fill="white"/>
<path d="M-140.983 -51.4899L-137.992 -52.0001L-15.2208 154.49L-18.2115 155L-140.983 -51.4899Z" fill="white"/>
<path d="M-133.653 -51.4899L-130.662 -52.0001L-7.89085 154.49L-10.8815 155L-133.653 -51.4899Z" fill="white"/>
<path d="M-124.49 -51.4899L-121.5 -52.0001L1.27159 154.49L-1.71907 155L-124.49 -51.4899Z" fill="white"/>
<path d="M-115.328 -51.4899L-112.337 -52.0001L10.434 154.49L7.44334 155L-115.328 -51.4899Z" fill="white"/>
<path d="M-107.998 -51.4899L-105.007 -52.0001L17.7639 154.49L14.7733 155L-107.998 -51.4899Z" fill="white"/>
<path d="M-98.8356 -51.4899L-95.845 -52.0001L26.9264 154.49L23.9357 155L-98.8356 -51.4899Z" fill="white"/>
<path d="M-89.6732 -51.4899L-86.6825 -52.0001L36.0888 154.49L33.0982 155L-89.6732 -51.4899Z" fill="white"/>
<path d="M-82.3433 -51.4899L-79.3526 -52.0001L43.4188 154.49L40.4281 155L-82.3433 -51.4899Z" fill="white"/>
<path d="M-73.1808 -51.4899L-70.1901 -52.0001L52.5812 154.49L49.5905 155L-73.1808 -51.4899Z" fill="white"/>
<path d="M-65.8509 -51.4899L-62.8602 -52.0001L59.9111 154.49L56.9205 155L-65.8509 -51.4899Z" fill="white"/>
<path d="M-56.6884 -51.4899L-53.6978 -52.0001L69.0736 154.49L66.0829 155L-56.6884 -51.4899Z" fill="white"/>
<path d="M-47.526 -51.4899L-44.5354 -52.0001L78.236 154.49L75.2453 155L-47.526 -51.4899Z" fill="white"/>
<path d="M-40.1961 -51.4899L-37.2054 -52.0001L85.5659 154.49L82.5753 155L-40.1961 -51.4899Z" fill="white"/>
<path d="M-31.0336 -51.4899L-28.043 -52.0001L94.7284 154.49L91.7377 155L-31.0336 -51.4899Z" fill="white"/>
<path d="M-21.8712 -51.4899L-18.8806 -52.0001L103.891 154.49L100.9 155L-21.8712 -51.4899Z" fill="white"/>
<path d="M-14.5412 -51.4899L-11.5506 -52.0001L111.221 154.49L108.23 155L-14.5412 -51.4899Z" fill="white"/>
<path d="M-5.37883 -51.4899L-2.38817 -52.0001L120.383 154.49L117.393 155L-5.37883 -51.4899Z" fill="white"/>
<path d="M3.78358 -51.4899L6.77425 -52.0001L129.546 154.49L126.555 155L3.78358 -51.4899Z" fill="white"/>
<path d="M11.1135 -51.4899L14.1042 -52.0001L136.876 154.49L133.885 155L11.1135 -51.4899Z" fill="white"/>
<path d="M20.276 -51.4899L23.2666 -52.0001L146.038 154.49L143.047 155L20.276 -51.4899Z" fill="white"/>
<path d="M29.4384 -51.4899L32.4291 -52.0001L155.2 154.49L152.21 155L29.4384 -51.4899Z" fill="white"/>
<path d="M36.7684 -51.4899L39.759 -52.0001L162.53 154.49L159.54 155L36.7684 -51.4899Z" fill="white"/>
<path d="M45.9308 -51.4899L48.9214 -52.0001L171.693 154.49L168.702 155L45.9308 -51.4899Z" fill="white"/>
<path d="M55.0932 -51.4899L58.0839 -52.0001L180.855 154.49L177.865 155L55.0932 -51.4899Z" fill="white"/>
<path d="M62.4232 -51.4899L65.4138 -52.0001L188.185 154.49L185.195 155L62.4232 -51.4899Z" fill="white"/>
<path d="M71.5856 -51.4899L74.5762 -52.0001L197.348 154.49L194.357 155L71.5856 -51.4899Z" fill="white"/>
<path d="M78.9155 -51.4899L81.9062 -52.0001L204.678 154.49L201.687 155L78.9155 -51.4899Z" fill="white"/>
<path d="M88.078 -51.4899L91.0686 -52.0001L213.84 154.49L210.849 155L88.078 -51.4899Z" fill="white"/>
<path d="M97.2404 -51.4899L100.231 -52.0001L223.002 154.49L220.012 155L97.2404 -51.4899Z" fill="white"/>
<path d="M104.57 -51.4899L107.561 -52.0001L230.332 154.49L227.342 155L104.57 -51.4899Z" fill="white"/>
<path d="M113.733 -51.4899L116.723 -52.0001L239.495 154.49L236.504 155L113.733 -51.4899Z" fill="white"/>
<path d="M122.895 -51.4899L125.886 -52.0001L248.657 154.49L245.667 155L122.895 -51.4899Z" fill="white"/>
<path d="M130.225 -51.4899L133.216 -52.0001L255.987 154.49L252.997 155L130.225 -51.4899Z" fill="white"/>
<path d="M139.388 -51.4899L142.378 -52.0001L265.15 154.49L262.159 155L139.388 -51.4899Z" fill="white"/>
<path d="M148.55 -51.4899L151.541 -52.0001L274.312 154.49L271.321 155L148.55 -51.4899Z" fill="white"/>
<path d="M155.88 -51.4899L158.871 -52.0001L281.642 154.49L278.651 155L155.88 -51.4899Z" fill="white"/>
<path d="M165.042 -51.4899L168.033 -52.0001L290.804 154.49L287.814 155L165.042 -51.4899Z" fill="white"/>
<path d="M174.205 -51.4899L177.195 -52.0001L299.967 154.49L296.976 155L174.205 -51.4899Z" fill="white"/>
<path d="M181.535 -51.4899L184.525 -52.0001L307.297 154.49L304.306 155L181.535 -51.4899Z" fill="white"/>
<path d="M190.697 -51.4899L193.688 -52.0001L316.459 154.49L313.469 155L190.697 -51.4899Z" fill="white"/>
<path d="M198.027 -51.4899L201.018 -52.0001L323.789 154.49L320.799 155L198.027 -51.4899Z" fill="white"/>
<path d="M207.19 -51.4899L210.18 -52.0001L332.952 154.49L329.961 155L207.19 -51.4899Z" fill="white"/>
<path d="M216.352 -51.4899L219.343 -52.0001L342.114 154.49L339.123 155L216.352 -51.4899Z" fill="white"/>
<path d="M223.682 -51.4899L226.673 -52.0001L349.444 154.49L346.453 155L223.682 -51.4899Z" fill="white"/>
<path d="M232.844 -51.4899L235.835 -52.0001L358.606 154.49L355.616 155L232.844 -51.4899Z" fill="white"/>
<path d="M242.007 -51.4899L244.997 -52.0001L367.769 154.49L364.778 155L242.007 -51.4899Z" fill="white"/>
<path d="M249.337 -51.4899L252.327 -52.0001L375.099 154.49L372.108 155L249.337 -51.4899Z" fill="white"/>
<path d="M258.499 -51.4899L261.49 -52.0001L384.261 154.49L381.271 155L258.499 -51.4899Z" fill="white"/>
<path d="M267.662 -51.4899L270.652 -52.0001L393.424 154.49L390.433 155L267.662 -51.4899Z" fill="white"/>
<path d="M274.992 -51.4899L277.982 -52.0001L400.754 154.49L397.763 155L274.992 -51.4899Z" fill="white"/>
<path d="M284.154 -51.4899L287.145 -52.0001L409.916 154.49L406.925 155L284.154 -51.4899Z" fill="white"/>
<path d="M293.316 -51.4899L296.307 -52.0001L419.078 154.49L416.088 155L293.316 -51.4899Z" fill="white"/>
<path d="M300.646 -51.4899L303.637 -52.0001L426.408 154.49L423.418 155L300.646 -51.4899Z" fill="white"/>
<path d="M309.809 -51.4899L312.799 -52.0001L435.571 154.49L432.58 155L309.809 -51.4899Z" fill="white"/>
<path d="M317.139 -51.4899L320.129 -52.0001L442.901 154.49L439.91 155L317.139 -51.4899Z" fill="white"/>
<path d="M326.301 -51.4899L329.292 -52.0001L452.063 154.49L449.073 155L326.301 -51.4899Z" fill="white"/>
<path d="M335.464 -51.4899L338.454 -52.0001L461.226 154.49L458.235 155L335.464 -51.4899Z" fill="white"/>
<path d="M342.794 -51.4899L345.784 -52.0001L468.556 154.49L465.565 155L342.794 -51.4899Z" fill="white"/>
<path d="M351.956 -51.4899L354.947 -52.0001L477.718 154.49L474.727 155L351.956 -51.4899Z" fill="white"/>
<path d="M361.118 -51.4899L364.109 -52.0001L486.88 154.49L483.89 155L361.118 -51.4899Z" fill="white"/>
<path d="M368.448 -51.4899L371.439 -52.0001L494.21 154.49L491.22 155L368.448 -51.4899Z" fill="white"/>
<path d="M377.611 -51.4899L380.601 -52.0001L503.373 154.49L500.382 155L377.611 -51.4899Z" fill="white"/>
<path d="M386.773 -51.4899L389.764 -52.0001L512.535 154.49L509.545 155L386.773 -51.4899Z" fill="white"/>
<path d="M394.103 -51.4899L397.094 -52.0001L519.865 154.49L516.875 155L394.103 -51.4899Z" fill="white"/>
<path d="M403.266 -51.4899L406.256 -52.0001L529.028 154.49L526.037 155L403.266 -51.4899Z" fill="white"/>
<path d="M412.428 -51.4899L415.419 -52.0001L538.19 154.49L535.199 155L412.428 -51.4899Z" fill="white"/>
<path d="M419.758 -51.4899L422.749 -52.0001L545.52 154.49L542.529 155L419.758 -51.4899Z" fill="white"/>
<path d="M428.92 -51.4899L431.911 -52.0001L554.682 154.49L551.692 155L428.92 -51.4899Z" fill="white"/>
<path d="M438.083 -51.4899L441.073 -52.0001L563.845 154.49L560.854 155L438.083 -51.4899Z" fill="white"/>
<path d="M445.413 -51.4899L448.403 -52.0001L571.175 154.49L568.184 155L445.413 -51.4899Z" fill="white"/>
<path d="M454.575 -51.4899L457.566 -52.0001L580.337 154.49L577.347 155L454.575 -51.4899Z" fill="white"/>
<path d="M461.905 -51.4899L464.896 -52.0001L587.667 154.49L584.677 155L461.905 -51.4899Z" fill="white"/>
<path d="M471.068 -51.4899L474.058 -52.0001L596.83 154.49L593.839 155L471.068 -51.4899Z" fill="white"/>
<path d="M480.23 -51.4899L483.221 -52.0001L605.992 154.49L603.001 155L480.23 -51.4899Z" fill="white"/>
<path d="M487.56 -51.4899L490.551 -52.0001L613.322 154.49L610.331 155L487.56 -51.4899Z" fill="white"/>
<path d="M496.722 -51.4899L499.713 -52.0001L622.484 154.49L619.494 155L496.722 -51.4899Z" fill="white"/>
<path d="M505.885 -51.4899L508.875 -52.0001L631.647 154.49L628.656 155L505.885 -51.4899Z" fill="white"/>
<path d="M513.215 -51.4899L516.205 -52.0001L638.977 154.49L635.986 155L513.215 -51.4899Z" fill="white"/>
<path d="M522.377 -51.4899L525.368 -52.0001L648.139 154.49L645.149 155L522.377 -51.4899Z" fill="white"/>
<path d="M531.54 -51.4899L534.53 -52.0001L657.302 154.49L654.311 155L531.54 -51.4899Z" fill="white"/>
<path d="M538.87 -51.4899L541.86 -52.0001L664.632 154.49L661.641 155L538.87 -51.4899Z" fill="white"/>
<path d="M548.032 -51.4899L551.023 -52.0001L673.794 154.49L670.803 155L548.032 -51.4899Z" fill="white"/>
<path d="M557.194 -51.4899L560.185 -52.0001L682.956 154.49L679.966 155L557.194 -51.4899Z" fill="white"/>
<path d="M564.524 -51.4899L567.515 -52.0001L690.286 154.49L687.296 155L564.524 -51.4899Z" fill="white"/>
<path d="M573.687 -51.4899L576.677 -52.0001L699.449 154.49L696.458 155L573.687 -51.4899Z" fill="white"/>
<path d="M581.017 -51.4899L584.007 -52.0001L706.779 154.49L703.788 155L581.017 -51.4899Z" fill="white"/>
<path d="M590.179 -51.4899L593.17 -52.0001L715.941 154.49L712.951 155L590.179 -51.4899Z" fill="white"/>
<path d="M599.342 -51.4899L602.332 -52.0001L725.104 154.49L722.113 155L599.342 -51.4899Z" fill="white"/>
<path d="M606.672 -51.4899L609.662 -52.0001L732.434 154.49L729.443 155L606.672 -51.4899Z" fill="white"/>
<path d="M615.834 -51.4899L618.825 -52.0001L741.596 154.49L738.605 155L615.834 -51.4899Z" fill="white"/>
<path d="M624.996 -51.4899L627.987 -52.0001L750.758 154.49L747.768 155L624.996 -51.4899Z" fill="white"/>
<path d="M632.326 -51.4899L635.317 -52.0001L758.088 154.49L755.098 155L632.326 -51.4899Z" fill="white"/>
<path d="M641.489 -51.4899L644.479 -52.0001L767.251 154.49L764.26 155L641.489 -51.4899Z" fill="white"/>
<path d="M650.651 -51.4899L653.642 -52.0001L776.413 154.49L773.423 155L650.651 -51.4899Z" fill="white"/>
<path d="M657.981 -51.4899L660.972 -52.0001L783.743 154.49L780.753 155L657.981 -51.4899Z" fill="white"/>
<path d="M667.144 -51.4899L670.134 -52.0001L792.906 154.49L789.915 155L667.144 -51.4899Z" fill="white"/>
<path d="M676.306 -51.4899L679.297 -52.0001L802.068 154.49L799.077 155L676.306 -51.4899Z" fill="white"/>
<path d="M683.636 -51.4899L686.627 -52.0001L809.398 154.49L806.407 155L683.636 -51.4899Z" fill="white"/>
<path d="M692.798 -51.4899L695.789 -52.0001L818.56 154.49L815.57 155L692.798 -51.4899Z" fill="white"/>
<path d="M701.961 -51.4899L704.952 -52.0001L827.723 154.49L824.732 155L701.961 -51.4899Z" fill="white"/>
<path d="M709.291 -51.4899L712.281 -52.0001L835.053 154.49L832.062 155L709.291 -51.4899Z" fill="white"/>
<path d="M718.453 -51.4899L721.444 -52.0001L844.215 154.49L841.225 155L718.453 -51.4899Z" fill="white"/>
<path d="M725.783 -51.4899L728.774 -52.0001L851.545 154.49L848.555 155L725.783 -51.4899Z" fill="white"/>
<path d="M734.946 -51.4899L737.936 -52.0001L860.708 154.49L857.717 155L734.946 -51.4899Z" fill="white"/>
<path d="M-175.8 -51.4899L-172.809 -51.9993L-49.8445 154.456L-52.8356 154.966L-175.8 -51.4899Z" fill="white"/>
<path d="M-166.638 -51.4899L-163.647 -52.0001L-40.8756 154.49L-43.8663 155L-166.638 -51.4899Z" fill="white"/>
<path d="M-159.308 -51.4899L-156.317 -52.0001L-33.5456 154.49L-36.5363 155L-159.308 -51.4899Z" fill="white"/>
<path d="M744.108 -51.4899L747.099 -52.0001L869.87 154.49L866.879 155L744.108 -51.4899Z" fill="white"/>
</g>
</svg>
